<svg width="758" height="1061" viewBox="0 0 758 1061" fill="none" xmlns="http://www.w3.org/2000/svg">
<path d="M378.75 75.75C416.205 75.75 452.819 86.8566 483.961 107.665C515.104 128.474 539.376 158.051 553.71 192.654C568.043 227.258 571.793 265.335 564.486 302.07C557.179 338.805 539.143 372.549 512.658 399.033C486.174 425.518 452.431 443.554 415.695 450.861C378.96 458.168 340.883 454.418 306.279 440.085C271.676 425.751 242.099 401.479 221.291 370.336C200.482 339.194 189.375 302.58 189.375 265.125C189.375 214.9 209.327 166.731 244.842 131.217C280.356 95.702 328.525 75.75 378.75 75.75ZM378.75 0C326.313 0 275.054 15.5493 231.455 44.6816C187.855 73.8139 153.873 115.221 133.807 163.666C113.74 212.111 108.49 265.419 118.719 316.848C128.949 368.278 154.2 415.518 191.278 452.597C228.357 489.675 275.598 514.926 327.027 525.156C378.456 535.386 431.764 530.135 480.209 510.069C528.654 490.002 570.061 456.02 599.194 412.421C628.326 368.821 643.875 317.562 643.875 265.125C643.875 194.809 615.942 127.374 566.222 77.6533C516.501 27.9327 449.066 0 378.75 0Z" fill="#FEFEFE"/>
<path d="M757.5 1060.5H681.75V871.125C681.75 846.256 676.852 821.63 667.335 798.654C657.818 775.678 643.868 754.802 626.283 737.217C608.698 719.632 587.822 705.682 564.846 696.165C541.87 686.648 517.244 681.75 492.375 681.75H265.125C214.9 681.75 166.731 701.702 131.217 737.217C95.702 772.731 75.75 820.9 75.75 871.125V1060.5H0V871.125C0 800.809 27.9327 733.374 77.6533 683.653C127.374 633.933 194.809 606 265.125 606H492.375C562.691 606 630.126 633.933 679.847 683.653C729.567 733.374 757.5 800.809 757.5 871.125V1060.5Z" fill="#FEFEFE"/>
</svg>
