<svg width="1065" height="773" viewBox="0 0 1065 773" fill="none" xmlns="http://www.w3.org/2000/svg">
<path fill-rule="evenodd" clip-rule="evenodd" d="M251.117 215.1C265.332 194.844 293.318 189.917 313.625 204.097L532 356.579L750.375 204.097C770.682 189.917 798.668 194.844 812.883 215.1C827.098 235.357 822.159 263.273 801.852 277.453L557.739 447.907C542.285 458.698 521.715 458.698 506.261 447.907L262.148 277.453C241.841 263.273 236.902 235.357 251.117 215.1Z" fill="#FEFEFE"/>
<path fill-rule="evenodd" clip-rule="evenodd" d="M142.365 89.7328C113.259 89.7328 89.663 113.347 89.663 142.476V630.524C89.663 659.654 113.258 683.267 142.365 683.267H922.635C951.743 683.267 975.337 659.655 975.337 630.524V142.476C975.337 113.346 951.743 89.7328 922.635 89.7328H142.365ZM0 142.476C0 63.7886 63.739 0 142.365 0H922.635C1001.26 0 1065 63.7891 1065 142.476V630.524C1065 709.213 1001.26 773 922.635 773H142.365C63.7395 773 0 709.213 0 630.524V142.476Z" fill="#FEFEFE"/>
</svg>
