<svg width="405" height="355" viewBox="0 0 405 355" fill="none" xmlns="http://www.w3.org/2000/svg">
<path d="M25.2868 328.728C25.2868 342.715 36.5868 354.015 50.5736 354.015H354.015C368.002 354.015 379.302 342.715 379.302 328.728V101.147H25.2868V328.728ZM151.721 161.203C151.721 155.988 155.988 151.721 161.203 151.721H243.385C248.601 151.721 252.868 155.988 252.868 161.203V167.525C252.868 172.74 248.601 177.007 243.385 177.007H161.203C155.988 177.007 151.721 172.74 151.721 167.525V161.203ZM379.302 0H25.2868C11.3 0 0 11.3 0 25.2868V63.2169C0 70.1708 5.68953 75.8603 12.6434 75.8603H391.945C398.899 75.8603 404.588 70.1708 404.588 63.2169V25.2868C404.588 11.3 393.288 0 379.302 0Z" fill="#FEFEFE"/>
</svg>
