<svg width="1064" height="846" viewBox="0 0 1064 846" fill="none" xmlns="http://www.w3.org/2000/svg">
<path fill-rule="evenodd" clip-rule="evenodd" d="M205.724 85.1229C139.145 85.1229 85.1714 139.065 85.1714 205.607V640.393C85.1714 706.935 139.145 760.877 205.724 760.877H858.276C924.855 760.877 978.829 706.935 978.829 640.393V205.607C978.829 139.065 924.855 85.1229 858.276 85.1229H205.724ZM0 205.607C0 92.0532 92.1057 0 205.724 0H858.276C971.894 0 1064 92.0532 1064 205.607V640.393C1064 753.947 971.894 846 858.276 846H205.724C92.1057 846 0 753.947 0 640.393V205.607Z" fill="#FEFEFE"/>
<path fill-rule="evenodd" clip-rule="evenodd" d="M392.847 447.458C409.5 430.847 436.5 430.847 453.153 447.458L616.51 610.392C633.163 627.002 633.163 653.932 616.51 670.542C599.857 687.153 572.857 687.153 556.204 670.542L423 537.683L289.796 670.542C273.143 687.153 246.143 687.153 229.49 670.542C212.837 653.932 212.837 627.002 229.49 610.392L392.847 447.458Z" fill="#FEFEFE"/>
<path fill-rule="evenodd" clip-rule="evenodd" d="M336.557 385.36C318.682 363.664 301.814 356.821 287.86 357.068C287.609 357.072 287.357 357.074 287.106 357.074C267.01 357.074 248.138 375.239 248.138 396.007C248.138 397.377 250.252 406.586 267.694 418.373C283.954 429.362 302.973 434.939 314.284 434.939H365.134C356.682 414.518 346.893 397.904 336.557 385.36ZM314.284 520C282.708 520 247.369 507.33 219.993 488.829C193.799 471.127 163 439.604 163 396.007C163 326.975 221.198 272.227 286.723 272.014C333.92 271.312 373.371 296.201 402.29 331.301C409.723 340.323 416.629 350.189 423 360.792C429.371 350.189 436.277 340.323 443.71 331.301C472.629 296.201 512.08 271.312 559.277 272.014C624.802 272.227 683 326.975 683 396.007C683 439.604 652.201 471.127 626.007 488.829C598.631 507.33 563.292 520 531.716 520H314.284ZM480.866 434.939C489.318 414.518 499.107 397.904 509.443 385.36C527.318 363.664 544.186 356.821 558.14 357.068C558.391 357.072 558.643 357.074 558.895 357.074C578.99 357.074 597.862 375.239 597.862 396.007C597.862 397.377 595.748 406.586 578.306 418.373C562.046 429.362 543.027 434.939 531.716 434.939H480.866Z" fill="#FEFEFE"/>
</svg>
