<svg width="1066" height="1064" viewBox="0 0 1066 1064" fill="none" xmlns="http://www.w3.org/2000/svg">
<path d="M819.343 1063.89H245.704C109.972 1063.89 0 953.418 0 817.687V450.617C0 383.245 41.6111 298.537 95.1112 256.926L362.116 48.87C442.366 -13.5465 570.667 -16.5187 653.889 41.9348L960.028 256.43C1018.98 297.546 1065.05 385.722 1065.05 457.552V818.182C1065.05 953.418 955.075 1063.89 819.343 1063.89ZM407.69 107.324L140.685 315.379C105.514 343.12 74.3056 406.032 74.3056 450.617V817.687C74.3056 912.302 151.088 989.58 245.704 989.58H819.343C913.959 989.58 990.741 912.798 990.741 818.182V457.552C990.741 409.995 956.561 344.111 917.426 317.361L611.287 102.865C554.815 63.2357 461.685 65.2172 407.69 107.324Z" fill="#FEFEFE"/>
<path d="M532.523 865.738C512.213 865.738 495.371 848.895 495.371 828.585V679.974C495.371 659.663 512.213 642.821 532.523 642.821C552.834 642.821 569.676 659.663 569.676 679.974V828.585C569.676 848.895 552.834 865.738 532.523 865.738Z" fill="#FEFEFE"/>
</svg>
