<svg width="1064" height="1139" viewBox="0 0 1064 1139" fill="none" xmlns="http://www.w3.org/2000/svg">
<path d="M531.894 1138.93C507.965 1138.92 484.066 1137.26 460.365 1133.96C415.394 1127.73 371.381 1115.89 329.352 1098.72C241.803 1062.75 165.489 1003.99 108.344 928.552C79.3423 890.67 55.6459 849.008 37.9099 804.721C3.83265 719.273 -7.54333 626.462 4.88865 535.316C17.3206 444.17 53.1373 357.792 108.854 284.586C137.848 246.454 171.906 212.453 210.089 183.521C225.995 172.299 245.635 167.684 264.876 170.646C284.117 173.608 301.459 183.917 313.251 199.403C325.043 214.889 330.367 234.345 328.102 253.676C325.836 273.007 316.159 290.706 301.105 303.047C273.785 323.707 249.403 347.986 228.628 375.215C208.503 401.7 191.872 430.664 179.142 461.394C166.673 491.603 158.136 523.288 153.742 555.672C144.733 621.173 152.934 687.891 177.536 749.263C190.226 780.895 207.169 810.649 227.898 837.704C248.635 865.092 272.991 889.541 300.302 910.383C326.704 930.499 355.606 947.105 386.282 959.784C416.644 972.225 448.448 980.806 480.948 985.324C513.189 989.788 545.877 989.984 578.168 985.907C611.211 981.664 643.584 973.254 674.513 960.878C738.283 935.073 793.998 892.699 835.89 838.142C875.988 785.71 901.655 723.696 910.338 658.269C914.773 625.939 915.018 593.172 911.067 560.78C906.882 527.781 898.468 495.457 886.033 464.605C873.243 432.721 856.178 402.723 835.306 375.434C814.694 348.209 790.457 323.928 763.266 303.266C754.955 297.493 747.894 290.101 742.509 281.533C737.124 272.966 733.524 263.399 731.926 253.408C730.329 243.416 730.765 233.204 733.21 223.385C735.655 213.566 740.058 204.342 746.155 196.265C752.252 188.188 759.918 181.426 768.692 176.383C777.467 171.339 787.17 168.119 797.219 166.916C807.268 165.712 817.457 166.55 827.175 169.378C836.893 172.206 845.939 176.967 853.772 183.375C891.903 212.321 925.89 246.349 954.787 284.513C983.915 322.613 1007.73 364.492 1025.59 409.001C1042.73 451.788 1054.33 496.59 1060.11 542.318C1074.26 658.715 1049.58 776.527 989.899 877.465C930.219 978.403 838.879 1056.82 730.057 1100.54C687.284 1117.57 642.527 1129.12 596.853 1134.91C575.305 1137.62 553.611 1138.91 531.894 1138.93ZM532.04 592.595C512.114 592.595 493.003 584.687 478.907 570.607C464.81 556.528 456.881 537.429 456.862 517.508V75.1598C456.862 55.2262 464.783 36.109 478.881 22.0138C492.98 7.91861 512.101 0 532.04 0C551.978 0 571.1 7.91861 585.199 22.0138C599.297 36.109 607.218 55.2262 607.218 75.1598V517.508C607.218 537.442 599.297 556.559 585.199 570.654C571.1 584.75 551.978 592.668 532.04 592.668V592.595Z" fill="#FEFEFE"/>
</svg>
