<svg width="839" height="602" viewBox="0 0 839 602" fill="none" xmlns="http://www.w3.org/2000/svg">
<path fill-rule="evenodd" clip-rule="evenodd" d="M524.445 13.9647C526.036 13.2917 527.638 12.5792 529.249 11.8245C566.142 -5.45733 602.49 5.86187 631.257 25.0927C659.83 44.194 685.24 73.5821 705.397 102.694C725.739 132.076 742.091 163.162 751.93 187.583C756.743 199.529 760.567 211.266 762.096 221.024C762.791 225.454 763.518 232.373 761.812 239.467C761.529 240.644 761.137 242.002 760.586 243.467C761.632 245.316 762.896 247.457 764.403 249.9C773.584 264.784 787.658 284.354 801.123 302.643C804.348 307.023 807.592 311.4 810.725 315.628L810.727 315.631L810.731 315.636C820.013 328.16 828.318 339.366 832.252 345.43C832.994 346.573 833.835 347.917 834.602 349.297L834.65 349.385C835.094 350.177 836.888 353.385 837.867 357.438C838.18 358.734 838.63 360.975 838.649 363.784C838.668 366.423 838.327 371.418 835.436 376.825C832.114 383.039 826.515 387.704 819.829 389.862C815.042 391.407 810.834 391.314 808.054 390.966C807.762 393.326 807.433 395.692 807.071 398.059C802.461 428.192 791.879 462.226 778.724 493.026C765.68 523.565 749.17 553.129 731.604 573.255C723.014 583.098 712.326 592.848 699.738 598.081C685.542 603.982 668.284 604.08 653.409 592.479C634.843 578.001 626.912 558.111 624.092 539.736C621.335 521.777 623.135 503.52 625.462 488.883L625.464 488.873L624.669 489.196L630.902 410.813C603.406 451.901 562.266 478 516.291 478H316.431C274.038 478 235.754 455.809 208.489 420.138L213.981 489.196L213.186 488.873L213.188 488.883C215.515 503.52 217.315 521.777 214.558 539.736C211.738 558.111 203.807 578.001 185.241 592.479C170.366 604.08 153.108 603.982 138.912 598.081C126.324 592.848 115.636 583.098 107.046 573.255C89.4806 553.129 72.97 523.565 59.9264 493.026C46.7715 462.226 36.189 428.192 31.5792 398.059C31.2172 395.692 30.8882 393.326 30.5963 390.966C27.8159 391.314 23.6078 391.407 18.8209 389.862C12.1351 387.704 6.53609 383.039 3.21392 376.825C0.323285 371.418 -0.0175193 366.423 0.000658368 363.784C0.0200156 360.975 0.469635 358.734 0.782926 357.438C1.76239 353.385 3.55643 350.177 3.99965 349.385L4.0483 349.297C4.81497 347.917 5.65582 346.573 6.39769 345.43C10.3326 339.365 18.6407 328.155 27.9243 315.629L27.9252 315.628C31.0583 311.4 34.3026 307.023 37.5274 302.643C50.992 284.354 65.0664 264.784 74.2475 249.9C75.7542 247.457 77.018 245.316 78.0642 243.467C77.5131 242.002 77.1215 240.644 76.8385 239.467C75.1322 232.373 75.8596 225.454 76.5539 221.024C78.0832 211.266 81.9067 199.529 86.72 187.583C96.5593 163.162 112.911 132.076 133.254 102.694C153.41 73.5821 178.82 44.194 207.393 25.0927C236.16 5.86187 272.508 -5.45733 309.401 11.8245C310.692 12.4294 311.978 13.0071 313.257 13.5592C339.005 5.23922 376.494 0 418.231 0C460.642 0 498.668 5.40983 524.445 13.9647ZM708.842 230.506C708.845 230.508 708.844 230.435 708.829 230.278C708.832 230.425 708.839 230.503 708.842 230.506ZM632.369 451.713C632.369 451.702 632.369 451.694 632.369 451.689C632.369 451.684 632.368 451.682 632.368 451.683C632.367 451.684 632.366 451.698 632.365 451.724C632.363 451.754 632.362 451.801 632.361 451.863C632.363 451.835 632.364 451.812 632.365 451.792C632.367 451.758 632.368 451.732 632.369 451.713ZM756.566 235.404L756.586 235.462C756.433 234.843 756.346 234.774 756.566 235.404ZM516.291 163H316.431C261.242 163 216.502 219.412 216.502 289C216.502 358.587 261.242 415 316.431 415H516.291C550.851 415 581.315 392.878 599.26 359.248C606.16 337.532 609.955 313.825 609.955 289C609.955 264.175 606.16 240.468 599.26 218.752C581.315 185.124 550.851 163 516.291 163ZM329.142 208.228C353.718 207.55 374.31 228.013 375.138 253.932C375.966 279.851 356.716 301.413 332.141 302.091C307.566 302.769 286.973 282.307 286.145 256.388C285.317 230.468 304.568 208.906 329.142 208.228ZM329.988 234.714C336.131 234.544 341.559 248.373 341.766 254.853C341.973 261.333 337.497 277.294 331.354 277.464C325.211 277.633 319.724 261.947 319.517 255.467C319.31 248.987 323.846 234.883 329.988 234.714ZM332.677 339H507.239L480.73 399.737H361.687L332.677 339ZM557.052 254.866C556.312 228.944 535.789 208.421 511.211 209.027C486.635 209.634 467.311 231.14 468.052 257.061C468.792 282.983 489.315 303.505 513.892 302.899C538.47 302.293 557.792 280.788 557.052 254.866ZM523.677 255.689C523.492 249.209 518.111 235.364 511.968 235.516C505.825 235.668 501.242 249.758 501.427 256.238C501.612 262.719 507.046 278.421 513.189 278.269C519.332 278.118 523.862 262.17 523.677 255.689ZM129.808 230.506C129.805 230.508 129.806 230.435 129.821 230.278C129.818 230.425 129.811 230.503 129.808 230.506ZM206.289 451.863C206.287 451.655 206.276 451.62 206.285 451.792C206.286 451.807 206.287 451.824 206.288 451.843L206.289 451.863ZM82.0843 235.404L82.0638 235.462C82.2171 234.843 82.3044 234.774 82.0843 235.404Z" fill="#FEFEFE"/>
</svg>
