<svg width="646" height="487" viewBox="0 0 646 487" fill="none" xmlns="http://www.w3.org/2000/svg">
<path d="M383 373H264V399H383V373Z" fill="#FEFEFE"/>
<path fill-rule="evenodd" clip-rule="evenodd" d="M207.701 337.701C240.476 337.701 267.046 311.133 267.046 278.358C267.046 245.584 240.476 219.015 207.701 219.015C174.927 219.015 148.358 245.584 148.358 278.358C148.358 311.133 174.927 337.701 207.701 337.701ZM207.701 293.194C215.895 293.194 222.537 286.55 222.537 278.358C222.537 270.166 215.895 263.522 207.701 263.522C199.508 263.522 192.866 270.166 192.866 278.358C192.866 286.55 199.508 293.194 207.701 293.194Z" fill="#FEFEFE"/>
<path fill-rule="evenodd" clip-rule="evenodd" d="M504.418 278.358C504.418 311.133 477.847 337.701 445.075 337.701C412.3 337.701 385.732 311.133 385.732 278.358C385.732 245.584 412.3 219.015 445.075 219.015C477.847 219.015 504.418 245.584 504.418 278.358ZM459.911 278.358C459.911 286.55 453.268 293.194 445.075 293.194C436.88 293.194 430.239 286.55 430.239 278.358C430.239 270.166 436.88 263.522 445.075 263.522C453.268 263.522 459.911 270.166 459.911 278.358Z" fill="#FEFEFE"/>
<path fill-rule="evenodd" clip-rule="evenodd" d="M48.171 387.143C77.3002 445.768 137.796 486.059 207.701 486.059H445.075C517.474 486.059 579.778 442.843 607.601 380.799C630.428 364.682 645.335 338.096 645.335 308.03C645.335 277.963 630.428 251.378 607.601 235.261C579.778 173.217 517.474 130 445.075 130H207.701C137.796 130 77.3002 170.291 48.171 228.918C19.5569 243.72 0 273.59 0 308.03C0 342.47 19.5569 372.34 48.171 387.143ZM207.701 189.343H445.075C486.123 189.343 522.304 210.183 543.618 241.859C551.813 262.315 556.32 284.646 556.32 308.03C556.32 331.414 551.813 353.745 543.618 374.2C522.304 405.878 486.123 426.716 445.075 426.716H207.701C142.153 426.716 89.0149 373.577 89.0149 308.03C89.0149 242.481 142.153 189.343 207.701 189.343Z" fill="#FEFEFE"/>
<mask id="mask0_142_68" style="mask-type:alpha" maskUnits="userSpaceOnUse" x="154" y="61" width="339" height="122">
<path d="M493 122.364C493 155.759 417.112 182.831 323.5 182.831C229.888 182.831 154 155.759 154 122.364C154 88.9683 229.888 61.896 323.5 61.896C417.112 61.896 493 88.9683 493 122.364Z" fill="black"/>
</mask>
<g mask="url(#mask0_142_68)">
<path d="M457.767 77.608C457.767 98.9074 397.867 116.174 323.976 116.174C250.086 116.174 190.186 98.9074 190.186 77.608C190.186 56.3086 250.086 39.042 323.976 39.042C397.867 39.042 457.767 56.3086 457.767 77.608Z" fill="#FEFEFE"/>
</g>
<mask id="mask1_142_68" style="mask-type:alpha" maskUnits="userSpaceOnUse" x="216" y="19" width="216" height="77">
<path d="M431.104 57.2619C431.104 78.3685 383.141 95.4788 323.976 95.4788C264.811 95.4788 216.848 78.3685 216.848 57.2619C216.848 36.1552 264.811 19.0449 323.976 19.0449C383.141 19.0449 431.104 36.1552 431.104 57.2619Z" fill="black"/>
</mask>
<g mask="url(#mask1_142_68)">
<path d="M407.867 32.9447C407.867 46.4064 370.009 57.3192 323.309 57.3192C276.608 57.3192 238.75 46.4064 238.75 32.9447C238.75 19.4829 276.608 8.57007 323.309 8.57007C370.009 8.57007 407.867 19.4829 407.867 32.9447Z" fill="#FEFEFE"/>
</g>
<mask id="mask2_142_68" style="mask-type:alpha" maskUnits="userSpaceOnUse" x="271" y="0" width="106" height="38">
<path d="M376.826 18.8537C376.826 29.2663 353.164 37.7074 323.976 37.7074C294.788 37.7074 271.126 29.2663 271.126 18.8537C271.126 8.44109 294.788 0 323.976 0C353.164 0 376.826 8.44109 376.826 18.8537Z" fill="black"/>
</mask>
<g mask="url(#mask2_142_68)">
<path d="M365.033 -0.354355C365.033 6.28676 346.356 11.6704 323.317 11.6704C300.278 11.6704 281.601 6.28676 281.601 -0.354355C281.601 -6.99547 300.278 -12.3792 323.317 -12.3792C346.356 -12.3792 365.033 -6.99547 365.033 -0.354355Z" fill="#FEFEFE"/>
</g>
</svg>
