<svg width="1102" height="1103" viewBox="0 0 1102 1103" fill="none" xmlns="http://www.w3.org/2000/svg">
<path fill-rule="evenodd" clip-rule="evenodd" d="M964.305 1102.51H137.695C61.6931 1102.51 0 1040.81 0 964.81V137.695C0 61.716 61.6931 0 137.695 0H964.305C1040.31 0 1102 61.716 1102 137.695V964.81C1102 1040.81 1040.31 1102.51 964.305 1102.51ZM367.494 1010.61V91.8965H160.503C122.605 91.8965 91.8506 122.651 91.8506 160.549V941.956C91.8506 979.854 122.605 1010.61 160.503 1010.61H367.494ZM941.497 91.8965H459.368V1010.61H941.497C979.395 1010.61 1010.15 979.854 1010.15 941.956V160.549C1010.15 122.651 979.395 91.8965 941.497 91.8965Z" fill="#FEFEFE"/>
<path fill-rule="evenodd" clip-rule="evenodd" d="M275.596 393.174L118.768 550.002L275.596 706.853L340.574 641.876L248.7 550.002L340.574 458.128L275.596 393.174Z" fill="#FEFEFE"/>
</svg>
