<svg width="1722" height="1722" viewBox="0 0 1722 1722" fill="none" xmlns="http://www.w3.org/2000/svg">
<path d="M799.726 1233.69C824.831 1233.69 849.936 1237.27 871.455 1244.45L484.118 146.991L448.253 39.397C437.494 7.11886 405.215 -7.22697 376.524 3.5324L39.397 114.713C7.11886 125.472 -7.22697 157.75 3.5324 186.442L39.397 294.035C50.1563 326.313 82.4344 340.659 111.126 329.9L286.862 272.517L641.922 1280.31C688.545 1251.62 742.342 1233.69 799.726 1233.69Z" fill="white"/>
<path d="M1405.83 971.879L1050.77 1097.4C1014.91 1111.75 971.872 1090.23 961.112 1054.37L835.586 699.308C821.241 663.444 842.759 620.406 878.624 609.647L1233.68 484.121C1269.55 469.775 1312.59 491.294 1323.34 527.158L1448.87 882.217C1463.22 918.082 1441.7 957.533 1405.83 971.879Z" fill="white"/>
<path d="M1068.71 387.283L828.414 469.771C792.549 484.117 749.512 462.599 738.752 426.734L656.264 186.441C641.918 150.577 663.437 107.539 699.301 96.78L939.594 14.2915C975.458 -0.0542923 1018.5 21.4644 1029.26 57.329L1111.74 297.622C1126.09 329.9 1108.16 372.937 1068.71 387.283Z" fill="white"/>
<path d="M1717.86 1197.82L1681.99 1090.23C1671.23 1057.95 1638.96 1043.61 1610.26 1054.37L957.529 1280.31C1025.67 1323.35 1072.3 1395.08 1086.64 1477.57L1685.58 1273.14C1714.27 1262.38 1728.62 1230.1 1717.86 1197.82Z" fill="white"/>
<path d="M799.729 1326.94C692.135 1326.94 602.474 1416.6 602.474 1524.19C602.474 1631.78 692.135 1721.45 799.729 1721.45C907.323 1721.45 996.984 1631.78 996.984 1524.19C996.984 1413.01 907.323 1326.94 799.729 1326.94Z" fill="white"/>
</svg>
