<svg width="2127" height="2127" viewBox="0 0 2127 2127" fill="none" xmlns="http://www.w3.org/2000/svg">
<path fill-rule="evenodd" clip-rule="evenodd" d="M1975.08 0H1125.52H1125.37C1046.03 0.0495588 969.858 31.1291 913.131 86.5964L112.494 869.61L111.279 870.826C75.9997 906.096 48.0142 947.97 28.9208 994.057C9.82734 1040.14 0 1089.54 0 1139.43C0 1189.31 9.82734 1238.71 28.9208 1284.8C48.0142 1330.88 75.9997 1372.76 111.279 1408.03L718.973 2015.72C754.243 2051 796.117 2078.99 842.204 2098.08C888.291 2117.17 937.688 2127 987.574 2127C1037.46 2127 1086.86 2117.17 1132.94 2098.08C1179.03 2078.99 1220.9 2051 1256.17 2015.72L2040.4 1214.02C2095.94 1157.22 2127.03 1080.92 2127 1001.48V151.924C2127 111.631 2110.99 72.9885 2082.5 44.4974C2054.01 16.0062 2015.37 0 1975.08 0ZM1860.65 134H1120.53H1120.4C1051.28 134.043 984.921 161.119 935.502 209.441L238.003 891.587L236.944 892.646C206.209 923.372 181.829 959.852 165.195 1000C148.561 1040.15 140 1083.19 140 1126.65C140 1170.1 148.561 1213.14 165.195 1253.29C181.829 1293.44 206.209 1329.92 236.944 1360.65L766.355 1890.06C797.081 1920.79 833.561 1945.17 873.711 1961.8C913.862 1978.44 956.895 1987 1000.35 1987C1043.81 1987 1086.85 1978.44 1127 1961.8C1167.15 1945.17 1203.63 1920.79 1234.35 1890.06L1917.56 1191.63C1965.95 1142.15 1993.03 1075.68 1993 1006.47V266.353C1993 231.251 1979.06 197.586 1954.23 172.765C1929.41 147.944 1895.75 134 1860.65 134Z" fill="#FEFEFE"/>
<path fill-rule="evenodd" clip-rule="evenodd" d="M1546 717C1621.66 717 1683 655.663 1683 580C1683 504.337 1621.66 443 1546 443C1470.34 443 1409 504.337 1409 580C1409 655.663 1470.34 717 1546 717ZM1546 797C1665.85 797 1763 699.846 1763 580C1763 460.154 1665.85 363 1546 363C1426.15 363 1329 460.154 1329 580C1329 699.846 1426.15 797 1546 797Z" fill="white"/>
</svg>
