<svg width="1064" height="1065" viewBox="0 0 1064 1065" fill="none" xmlns="http://www.w3.org/2000/svg">
<path fill-rule="evenodd" clip-rule="evenodd" d="M245.329 204.493C169.723 204.493 108.431 265.82 108.431 341.47V819.53C108.431 895.18 169.723 956.506 245.329 956.506H818.671C894.277 956.506 955.569 895.18 955.569 819.53V341.47C955.569 265.82 894.277 204.493 818.671 204.493H245.329ZM0 341.47C0 205.901 109.838 96 245.329 96H818.671C954.162 96 1064 205.901 1064 341.47V819.53C1064 955.099 954.162 1065 818.671 1065H245.329C109.838 1065 0 955.099 0 819.53V341.47Z" fill="#FEFEFE"/>
<path fill-rule="evenodd" clip-rule="evenodd" d="M341 0C370.823 0 395 24.31 395 54.2979V245.702C395 275.69 370.823 300 341 300C311.177 300 287 275.69 287 245.702V54.2979C287 24.31 311.177 0 341 0Z" fill="#FEFEFE"/>
<path fill-rule="evenodd" clip-rule="evenodd" d="M722.5 0C752.6 0 777 24.31 777 54.2979V245.702C777 275.69 752.6 300 722.5 300C692.4 300 668 275.69 668 245.702V54.2979C668 24.31 692.4 0 722.5 0Z" fill="#FEFEFE"/>
<path fill-rule="evenodd" clip-rule="evenodd" d="M0 436.5C0 406.4 24.2731 382 54.2156 382H1009.78C1039.73 382 1064 406.4 1064 436.5C1064 466.6 1039.73 491 1009.78 491H54.2156C24.2731 491 0 466.6 0 436.5Z" fill="#FEFEFE"/>
</svg>
