<svg width="405" height="355" viewBox="0 0 405 355" fill="none" xmlns="http://www.w3.org/2000/svg">
<path d="M364.446 75.8603H63.2169C56.2315 75.8603 50.5736 70.2024 50.5736 63.2169C50.5736 56.2315 56.2315 50.5736 63.2169 50.5736H366.658C373.644 50.5736 379.302 44.9156 379.302 37.9302C379.302 16.9817 362.32 0 341.372 0H50.5736C22.6396 0 0 22.6396 0 50.5736V303.441C0 331.375 22.6396 354.015 50.5736 354.015H364.446C386.587 354.015 404.588 337.002 404.588 316.085V113.79C404.588 92.8736 386.587 75.8603 364.446 75.8603ZM328.728 240.224C314.765 240.224 303.441 228.901 303.441 214.938C303.441 200.975 314.765 189.651 328.728 189.651C342.691 189.651 354.015 200.975 354.015 214.938C354.015 228.901 342.691 240.224 328.728 240.224Z" fill="#FEFEFE"/>
</svg>
