<svg width="405" height="405" viewBox="0 0 405 405" fill="none" xmlns="http://www.w3.org/2000/svg">
<path d="M202.294 0C90.5675 0 0 90.5675 0 202.294C0 314.021 90.5675 404.588 202.294 404.588C314.021 404.588 404.588 314.021 404.588 202.294C404.588 90.5675 314.021 0 202.294 0ZM269.418 291.695C266.237 294.86 262.901 298.18 260.193 300.896C257.754 303.343 256.033 306.362 255.16 309.633C253.928 314.249 252.933 318.915 251.269 323.393L237.084 361.609C225.86 364.056 214.244 365.435 202.294 365.435V343.101C203.673 332.807 196.062 313.523 183.835 301.296C178.941 296.402 176.192 289.762 176.192 282.837V256.726C176.192 247.231 171.077 238.503 162.765 233.911C151.044 227.426 134.371 218.364 122.951 212.613C113.587 207.898 104.924 201.895 97.1339 194.871L96.4813 194.284C90.9106 189.256 85.9646 183.576 81.7497 177.366C74.0984 166.134 61.6345 147.658 53.5346 135.651C70.232 98.5369 100.323 68.7311 137.715 52.5394L157.3 62.336C165.979 66.6755 176.192 60.3701 176.192 50.6633V41.4458C182.709 40.3936 189.341 39.7247 196.087 39.4718L219.171 62.5562C224.269 67.6544 224.269 75.9174 219.171 81.0156L215.345 84.8331L206.911 93.2674C204.366 95.8124 204.366 99.948 206.911 102.493L210.737 106.319C213.282 108.864 213.282 112.999 210.737 115.544L204.211 122.07C202.986 123.293 201.325 123.979 199.594 123.979H192.261C190.564 123.979 188.933 124.639 187.709 125.83L179.618 133.702C178.626 134.668 177.966 135.924 177.735 137.289C177.503 138.654 177.711 140.057 178.329 141.296L191.046 166.738C193.215 171.077 190.059 176.184 185.213 176.184H180.613C179.039 176.184 177.521 175.613 176.339 174.585L168.769 168.01C167.056 166.524 164.986 165.51 162.762 165.066C160.538 164.623 158.237 164.766 156.085 165.482L130.659 173.957C128.718 174.604 127.03 175.846 125.834 177.506C124.638 179.166 123.994 181.161 123.995 183.207C123.995 186.902 126.083 190.271 129.387 191.927L138.425 196.446C146.1 200.288 154.567 202.286 163.149 202.286C171.73 202.286 181.575 224.547 189.251 228.389H243.699C250.625 228.389 257.256 231.137 262.159 236.032L273.326 247.199C277.991 251.866 280.611 258.195 280.61 264.793C280.608 269.794 279.619 274.744 277.698 279.361C275.777 283.978 272.964 288.169 269.418 291.695ZM340.148 217.181C335.425 215.998 331.306 213.102 328.606 209.048L313.939 187.049C311.793 183.835 310.648 180.057 310.648 176.192C310.648 172.327 311.793 168.549 313.939 165.335L329.919 141.369C331.811 138.539 334.405 136.239 337.456 134.721L348.044 129.428C359.072 151.386 365.435 176.086 365.435 202.294C365.435 209.366 364.831 216.292 363.95 223.127L340.148 217.181Z" fill="#FEFEFE"/>
</svg>
