<svg width="34" height="37" viewBox="0 0 34 37" fill="none" xmlns="http://www.w3.org/2000/svg">
<path d="M16.5876 0C7.40915 0 0 6.1975 0 13.875C0 23.125 16.5876 37 16.5876 37C16.5876 37 33.1753 23.125 33.1753 13.875C33.1753 6.1975 25.7661 0 16.5876 0Z" fill="#19776D"/>
<path d="M18.3919 19.2198H6.44268C6.11258 19.2198 5.84521 19.4434 5.84521 19.7195V20.719C5.84521 20.9951 6.11258 21.2188 6.44268 21.2188H18.3919C18.722 21.2188 18.9894 20.9951 18.9894 20.719V19.7195C18.9894 19.4434 18.722 19.2198 18.3919 19.2198ZM26.1589 9.22462V7.72535C26.1589 7.44923 25.8916 7.22559 25.5615 7.22559C25.2314 7.22559 24.964 7.44923 24.964 7.72535V9.22462H23.7691V7.72535C23.7691 7.44923 23.5017 7.22559 23.1716 7.22559C22.8415 7.22559 22.5742 7.44923 22.5742 7.72535V9.22462H21.9767C21.6466 9.22462 21.3792 9.44826 21.3792 9.72437V10.7239C21.3792 11.8408 22.2612 12.7757 23.4703 13.0955V16.7966C23.4703 17.2323 23.1156 17.6374 22.6018 17.7083C21.9476 17.7986 21.3792 17.3766 21.3792 16.8459V15.9713C21.3792 14.4533 19.908 13.2227 18.0932 13.2227H17.7945V7.22559C17.7945 6.12144 16.7246 5.22656 15.4046 5.22656H9.42999C8.10997 5.22656 7.04014 6.12144 7.04014 7.22559V18.2202H17.7945V14.7219H18.0932C18.9181 14.7219 19.5868 15.2814 19.5868 15.9713V16.74C19.5868 17.9791 20.6668 19.0876 22.1414 19.2079C23.8329 19.3463 25.2627 18.233 25.2627 16.8459V13.0955C26.4718 12.7757 27.3539 11.8408 27.3539 10.7239V9.72437C27.3539 9.44826 27.0865 9.22462 26.7564 9.22462H26.1589ZM15.5573 10.7164L12.0584 15.058C11.9763 15.162 11.8266 15.2217 11.6705 15.2217C11.3841 15.2217 11.1675 15.0255 11.2347 14.8181L12.0943 12.2232H9.87808C9.60736 12.2232 9.39825 12.0486 9.43409 11.8518L10.0316 8.50965C10.0611 8.34692 10.2508 8.2251 10.4755 8.2251H13.0148C13.309 8.2251 13.5234 8.42938 13.4479 8.63771L13.0148 10.2241H15.1694C15.5144 10.2241 15.7299 10.4984 15.5573 10.7164Z" fill="#E5E9E7"/>
</svg>
