<svg width="34" height="37" viewBox="0 0 34 37" fill="none" xmlns="http://www.w3.org/2000/svg">
<path d="M17.4123 0C8.23385 0 0.824707 6.1975 0.824707 13.875C0.824707 23.125 17.4123 37 17.4123 37C17.4123 37 34 23.125 34 13.875C34 6.1975 26.5908 0 17.4123 0Z" fill="#19776D"/>
<path d="M19.2166 19.2198H7.26738C6.93729 19.2198 6.66992 19.4434 6.66992 19.7195V20.719C6.66992 20.9951 6.93729 21.2188 7.26738 21.2188H19.2166C19.5467 21.2188 19.8141 20.9951 19.8141 20.719V19.7195C19.8141 19.4434 19.5467 19.2198 19.2166 19.2198ZM26.9836 9.22462V7.72535C26.9836 7.44923 26.7163 7.22559 26.3862 7.22559C26.0561 7.22559 25.7887 7.44923 25.7887 7.72535V9.22462H24.5938V7.72535C24.5938 7.44923 24.3264 7.22559 23.9963 7.22559C23.6662 7.22559 23.3989 7.44923 23.3989 7.72535V9.22462H22.8014C22.4713 9.22462 22.2039 9.44826 22.2039 9.72437V10.7239C22.2039 11.8408 23.0859 12.7757 24.2951 13.0955V16.7966C24.2951 17.2323 23.9403 17.6374 23.4265 17.7083C22.7723 17.7986 22.2039 17.3766 22.2039 16.8459V15.9713C22.2039 14.4533 20.7327 13.2227 18.9179 13.2227H18.6192V7.22559C18.6192 6.12144 17.5493 5.22656 16.2293 5.22656H10.2547C8.93468 5.22656 7.86485 6.12144 7.86485 7.22559V18.2202H18.6192V14.7219H18.9179C19.7428 14.7219 20.4116 15.2814 20.4116 15.9713V16.74C20.4116 17.9791 21.4915 19.0876 22.9661 19.2079C24.6576 19.3463 26.0874 18.233 26.0874 16.8459V13.0955C27.2966 12.7757 28.1786 11.8408 28.1786 10.7239V9.72437C28.1786 9.44826 27.9112 9.22462 27.5811 9.22462H26.9836ZM16.382 10.7164L12.8832 15.058C12.801 15.162 12.6513 15.2217 12.4952 15.2217C12.2088 15.2217 11.9922 15.0255 12.0594 14.8181L12.919 12.2232H10.7028C10.4321 12.2232 10.223 12.0486 10.2588 11.8518L10.8563 8.50965C10.8858 8.34692 11.0755 8.2251 11.3003 8.2251H13.8395C14.1337 8.2251 14.3481 8.42938 14.2726 8.63771L13.8395 10.2241H15.9941C16.3391 10.2241 16.5546 10.4984 16.382 10.7164Z" fill="#101010"/>
</svg>
