<svg width="409" height="409" viewBox="0 0 409 409" fill="none" xmlns="http://www.w3.org/2000/svg">
<path d="M290.186 0H118.815C44.3765 0 0 44.3765 0 118.815V289.981C0 364.624 44.3765 409 118.815 409H289.981C364.419 409 408.796 364.624 408.796 290.186V118.815C409 44.3765 364.624 0 290.186 0ZM327.2 219.838H219.838V327.2C219.838 335.585 212.885 342.538 204.5 342.538C196.116 342.538 189.163 335.585 189.163 327.2V219.838H81.8C73.4155 219.838 66.4625 212.885 66.4625 204.5C66.4625 196.116 73.4155 189.163 81.8 189.163H189.163V81.8C189.163 73.4155 196.116 66.4625 204.5 66.4625C212.885 66.4625 219.838 73.4155 219.838 81.8V189.163H327.2C335.585 189.163 342.538 196.116 342.538 204.5C342.538 212.885 335.585 219.838 327.2 219.838Z" fill="#101010"/>
</svg>
