<?xml version="1.0" encoding="iso-8859-1"?>
<!-- Generator: Adobe Illustrator 25.0.0, SVG Export Plug-In . SVG Version: 6.00 Build 0)  -->
<svg version="1.1" id="Calque_1" xmlns="http://www.w3.org/2000/svg" xmlns:xlink="http://www.w3.org/1999/xlink" x="0px" y="0px"
	 width="1000px" height="300px" viewBox="0 0 1000 300" enable-background="new 0 0 1000 300" xml:space="preserve">
<g id="XMLID_41_">
	<linearGradient id="XMLID_3_" gradientUnits="userSpaceOnUse" x1="114.9172" y1="257.803" x2="207.5417" y2="97.3726">
		<stop  offset="0" style="stop-color:#B78410"/>
		<stop  offset="0.501" style="stop-color:#C7962B"/>
		<stop  offset="1" style="stop-color:#DBAE49"/>
	</linearGradient>
	<path id="XMLID_9_" fill-rule="evenodd" clip-rule="evenodd" fill="url(#XMLID_3_)" d="M159.882,151.567l-12.078,62.17l-1.32,2.55
		h15.859L186,182.728l11.493-3.967l12.611-2.147l7.966,6.891l-19.957,15.652l12.885,12.974l1.374,4.156l43.598-6.004
		c2.429-0.335,3.26-3.425,1.327-4.933l-30.87-24.081l-15.132-19.322l-10.671,4.294l-13.051-15.744l-30.787-82.426l-13.381,18.017
		l-12.349,22.901l-23.085,23.617l-15.023,23.617l-19.315,9.303l-15.127,17.891l-13.489-2.863l-9.907,16.538l0.714,5.815l1.861-2.224
		l10.36-6.145l28.061-23.944l18.024-7.933l-0.409,3.936l-27.739,40.077l4.074-20.846l-25.794,27.195l1.233,4.701l24.108-1.436
		l25.474-30.399l-3.209,6.666l-14.896,23.733h28.459l5.649-10.331l9.145-9.569l4.825-2.004l14.053-24.209l6.063-9.242l1.099,11.655
		L159.882,151.567L159.882,151.567z M162.607,121.555l-2.476,20.887l-0.59,1.313l-5.187,6.615l-4.982-8.465l-0.541-5.188
		l10.568-41.406l0.143,15.524L162.607,121.555L162.607,121.555z M146.991,112.299l1.471,10.193l-16.327,41.12l-1.876-24.568
		l-1.753-2.444l-20.997,30.804l-9.269,11.747l22.164-44.728l9.591-14.609l3.682-0.716l14.679-31.458l6.952-7.218L146.991,112.299
		L146.991,112.299z M175.379,168.921l10.527-3.803l-6.75,9.902l-7.802,10.377l-1.299-5.204L175.379,168.921z"/>
	<path id="XMLID_1_" fill-rule="evenodd" clip-rule="evenodd" fill="#BCA078" d="M47.848,222.791
		c75.685,11.903,152.11-10.003,208.844-5.561c1.764,0.138-0.931-0.704,0.794-0.513l1.312-2.25l1.183-3.104
		c-1.542-0.356,0.816,0.157-0.762-0.151c-58.281-11.357-140.848,9.717-214.859,3.927"/>
</g>
<g>
	<linearGradient id="SVGID_1_" gradientUnits="userSpaceOnUse" x1="18.9924" y1="152.5069" x2="278.6696" y2="152.5069">
		<stop  offset="0" style="stop-color:#FFFFFF"/>
		<stop  offset="1" style="stop-color:#272626"/>
	</linearGradient>
	<path fill="url(#SVGID_1_)" d="M276.863,150.371c0.233,16.748-2.752,33.614-8.883,49.355c-6.124,15.733-15.402,30.345-27.33,42.464
		c-5.926,6.096-12.564,11.485-19.608,16.246c-7.102,4.678-14.645,8.698-22.538,11.853c-15.773,6.322-32.809,9.427-49.673,8.984
		c-8.43-0.21-16.828-1.23-25.028-3.06c-8.191-1.876-16.17-4.565-23.786-7.997c-15.249-6.846-28.941-16.79-40.225-28.807
		c-5.639-6.016-10.672-12.564-15.008-19.518c-4.356-6.939-8.057-14.266-10.976-21.877c-5.812-15.229-8.76-31.46-8.542-47.643
		c0.164-16.179,3.431-32.281,9.581-47.212c6.125-14.951,15.293-28.614,26.638-40.132c5.675-5.759,11.918-10.968,18.613-15.522
		c6.701-4.545,13.838-8.459,21.288-11.673c14.912-6.416,31.13-9.817,47.443-10.117c16.313-0.249,32.744,2.648,48.044,8.669
		c15.304,6.002,29.448,15.087,41.371,26.573c11.903,11.506,21.541,25.421,28.159,40.714
		C273.041,116.956,276.597,133.621,276.863,150.371z M267.476,150.371c0.255-15.544-2.535-31.168-8.292-45.707
		c-5.733-14.546-14.41-27.974-25.341-39.305c-10.915-11.348-24.112-20.578-38.648-26.926c-14.525-6.373-30.383-9.821-46.365-10.082
		c-15.981-0.289-32.052,2.655-46.965,8.633C86.922,42.906,73.25,52.001,61.748,63.288c-11.489,11.32-20.636,24.998-26.861,39.887
		c-6.243,14.894-9.321,31.08-9.169,47.196c0.23,16.111,3.626,32.169,10.208,46.765c3.262,7.303,7.219,14.278,11.841,20.759
		c4.641,6.467,9.902,12.457,15.675,17.865c11.554,10.817,25.203,19.188,39.794,24.693c7.299,2.752,14.846,4.766,22.492,6.025
		c7.638,1.31,15.385,1.859,23.102,1.669l5.777-0.297l5.746-0.573c1.909-0.23,3.806-0.547,5.708-0.812
		c1.895-0.309,3.77-0.733,5.654-1.089c7.492-1.653,14.829-3.96,21.851-6.996c7.023-3.026,13.781-6.664,20.098-10.964
		c6.376-4.216,12.277-9.12,17.775-14.437c10.906-10.718,19.942-23.448,26.169-37.554
		C263.871,181.34,267.232,165.918,267.476,150.371z"/>
</g>
<g>
	<linearGradient id="SVGID_2_" gradientUnits="userSpaceOnUse" x1="311.6718" y1="144.3736" x2="359.2474" y2="61.9701">
		<stop  offset="0" style="stop-color:#B78410"/>
		<stop  offset="0.501" style="stop-color:#C7962B"/>
		<stop  offset="1" style="stop-color:#DBAE49"/>
	</linearGradient>
	<path fill="url(#SVGID_2_)" d="M308.78,139.939V66.497c0-2.644,2.144-4.788,4.788-4.788h45.226v7.652
		c0,2.644-2.144,4.788-4.788,4.788h-25.713c-2.644,0-4.788,2.144-4.788,4.788v11.625c0,2.644,2.144,4.788,4.788,4.788h20.254
		c2.644,0,4.788,2.144,4.788,4.788v2.864c0,2.644-2.144,4.788-4.788,4.788h-20.254c-2.644,0-4.788,2.144-4.788,4.788v14.922
		c0,2.644,2.144,4.788,4.788,4.788h26.982c2.644,0,4.788,2.144,4.788,4.788v7.652h-46.496
		C310.924,144.727,308.78,142.583,308.78,139.939z"/>
	<linearGradient id="SVGID_3_" gradientUnits="userSpaceOnUse" x1="383.0182" y1="140.8306" x2="428.8784" y2="61.3984">
		<stop  offset="0" style="stop-color:#B78410"/>
		<stop  offset="0.501" style="stop-color:#C7962B"/>
		<stop  offset="1" style="stop-color:#DBAE49"/>
	</linearGradient>
	<path fill="url(#SVGID_3_)" d="M389.767,144.727V62.238c0-0.292,0.237-0.529,0.529-0.529h25.621c4.57,0,8.822,0.425,12.757,1.271
		c3.934,0.846,7.34,2.284,10.218,4.314c2.876,2.033,5.12,4.68,6.728,7.934c1.607,3.26,2.413,7.301,2.413,12.124
		c0,4.571-0.806,8.547-2.413,11.931c-1.608,3.387-3.83,6.201-6.665,8.442c-2.836,2.244-6.178,3.892-10.027,4.952
		c-3.852,1.057-8.019,1.587-12.503,1.587h-11.404c-0.292,0-0.529,0.237-0.529,0.529v24.859c0,2.804-2.273,5.077-5.077,5.077H389.767
		z M404.492,101.926c0,0.292,0.237,0.529,0.529,0.529h10.261c12.187,0,18.28-5.033,18.28-15.105c0-5.247-1.587-8.863-4.76-10.853
		c-3.173-1.987-7.85-2.984-14.026-2.984h-9.754c-0.292,0-0.529,0.237-0.529,0.529V101.926z"/>
	<linearGradient id="SVGID_4_" gradientUnits="userSpaceOnUse" x1="463.6721" y1="137.4151" x2="503.3014" y2="68.7752">
		<stop  offset="0" style="stop-color:#B78410"/>
		<stop  offset="0.501" style="stop-color:#C7962B"/>
		<stop  offset="1" style="stop-color:#DBAE49"/>
	</linearGradient>
	<path fill="url(#SVGID_4_)" d="M476.336,144.727V67.177c0-3.02,2.448-5.469,5.469-5.469h9.256v76.209
		c0,3.76-3.048,6.809-6.809,6.809H476.336z"/>
	<linearGradient id="SVGID_5_" gradientUnits="userSpaceOnUse" x1="535.9279" y1="151.0259" x2="588.5853" y2="59.8206">
		<stop  offset="0" style="stop-color:#B78410"/>
		<stop  offset="0.501" style="stop-color:#C7962B"/>
		<stop  offset="1" style="stop-color:#DBAE49"/>
	</linearGradient>
	<path fill="url(#SVGID_5_)" d="M524.826,144.465V70.964c0-5.111,4.144-9.255,9.255-9.255h7.375l14.725,40.62
		c0.93,2.625,1.818,5.312,2.665,8.061c0.845,2.752,1.734,5.482,2.665,8.188h0.508c0.93-2.705,1.797-5.436,2.602-8.188
		c0.804-2.749,1.67-5.436,2.603-8.061l14.344-40.62h7.915c4.882,0,8.84,3.958,8.84,8.84v74.178h-4.041
		c-5.269,0-9.541-4.272-9.541-9.541v-28.414c0-1.946,0.064-4.063,0.189-6.347c0.127-2.284,0.274-4.59,0.445-6.917
		c0.169-2.327,0.381-4.611,0.635-6.855c0.254-2.241,0.463-4.336,0.634-6.285h-0.507l-6.728,19.295l-12.687,34.862
		c-0.537,1.475-1.939,2.457-3.509,2.457h-3.538c-1.566,0-2.965-0.977-3.505-2.447l-12.81-34.872l-6.601-19.295h-0.508
		c0.169,1.949,0.359,4.044,0.572,6.285c0.209,2.244,0.421,4.528,0.634,6.855c0.211,2.327,0.381,4.633,0.508,6.917
		s0.191,4.401,0.191,6.347v28.36c0,5.299-4.296,9.595-9.595,9.595h-3.473C524.943,144.727,524.826,144.61,524.826,144.465z"/>
	<linearGradient id="SVGID_6_" gradientUnits="userSpaceOnUse" x1="713.4329" y1="144.9333" x2="753.0621" y2="76.2934">
		<stop  offset="0" style="stop-color:#B78410"/>
		<stop  offset="0.501" style="stop-color:#C7962B"/>
		<stop  offset="1" style="stop-color:#DBAE49"/>
	</linearGradient>
	<path fill="url(#SVGID_6_)" d="M713.075,144.727V67.218c0-3.043,2.466-5.509,5.509-5.509h9.216v65.366
		c0,2.879,2.334,5.212,5.212,5.212h29.314v6.06c0,3.523-2.856,6.38-6.38,6.38H713.075z"/>
	<linearGradient id="SVGID_7_" gradientUnits="userSpaceOnUse" x1="927.0949" y1="155.6495" x2="974.1182" y2="74.2028">
		<stop  offset="0" style="stop-color:#B78410"/>
		<stop  offset="0.501" style="stop-color:#C7962B"/>
		<stop  offset="1" style="stop-color:#DBAE49"/>
	</linearGradient>
	<path fill="url(#SVGID_7_)" d="M908.176,144.727l27.039-83.018h17.262l27.039,83.018h-10.703c-2.834,0-5.326-1.876-6.111-4.599
		l-5.146-17.869h-27.929l-5.066,17.581c-0.834,2.894-3.482,4.887-6.494,4.887H908.176z M935.975,100.552l-1.324,4.607
		c-0.799,2.779,1.287,5.549,4.178,5.549h9.652c2.892,0,4.978-2.771,4.178-5.55l-1.325-4.606c-1.354-4.401-2.643-8.928-3.871-13.583
		c-1.227-4.652-2.433-9.266-3.617-13.834h-0.508c-1.187,4.655-2.371,9.288-3.555,13.899
		C938.597,91.646,937.329,96.152,935.975,100.552z"/>
	<linearGradient id="SVGID_8_" gradientUnits="userSpaceOnUse" x1="629.811" y1="144.3736" x2="677.3867" y2="61.9701">
		<stop  offset="0" style="stop-color:#B78410"/>
		<stop  offset="0.501" style="stop-color:#C7962B"/>
		<stop  offset="1" style="stop-color:#DBAE49"/>
	</linearGradient>
	<path fill="url(#SVGID_8_)" d="M626.919,139.939V66.497c0-2.644,2.144-4.788,4.788-4.788h45.226v7.652
		c0,2.644-2.144,4.788-4.788,4.788h-25.713c-2.644,0-4.788,2.144-4.788,4.788v11.625c0,2.644,2.144,4.788,4.788,4.788h20.254
		c2.644,0,4.788,2.144,4.788,4.788v2.864c0,2.644-2.144,4.788-4.788,4.788h-20.254c-2.644,0-4.788,2.144-4.788,4.788v14.922
		c0,2.644,2.144,4.788,4.788,4.788h26.982c2.644,0,4.788,2.144,4.788,4.788v7.652h-46.495
		C629.063,144.727,626.919,142.583,626.919,139.939z"/>
	<linearGradient id="SVGID_9_" gradientUnits="userSpaceOnUse" x1="787.6906" y1="144.3736" x2="835.2662" y2="61.9701">
		<stop  offset="0" style="stop-color:#B78410"/>
		<stop  offset="0.501" style="stop-color:#C7962B"/>
		<stop  offset="1" style="stop-color:#DBAE49"/>
	</linearGradient>
	<path fill="url(#SVGID_9_)" d="M784.799,139.939V66.497c0-2.644,2.144-4.788,4.788-4.788h45.226v7.652
		c0,2.644-2.144,4.788-4.788,4.788h-25.713c-2.644,0-4.788,2.144-4.788,4.788v11.625c0,2.644,2.144,4.788,4.788,4.788h20.254
		c2.644,0,4.788,2.144,4.788,4.788v2.864c0,2.644-2.144,4.788-4.788,4.788h-20.254c-2.644,0-4.788,2.144-4.788,4.788v14.922
		c0,2.644,2.144,4.788,4.788,4.788h26.982c2.644,0,4.788,2.144,4.788,4.788v7.652h-46.495
		C786.942,144.727,784.799,142.583,784.799,139.939z"/>
	<linearGradient id="SVGID_10_" gradientUnits="userSpaceOnUse" x1="853.2142" y1="136.6527" x2="892.8434" y2="68.0128">
		<stop  offset="0" style="stop-color:#B78410"/>
		<stop  offset="0.501" style="stop-color:#C7962B"/>
		<stop  offset="1" style="stop-color:#DBAE49"/>
	</linearGradient>
	<path fill="url(#SVGID_10_)" d="M865.878,143.964V66.415c0-3.02,2.448-5.469,5.469-5.469h9.256v76.209
		c0,3.76-3.048,6.809-6.809,6.809H865.878z"/>
</g>
<path fill="#EAEAEA" d="M385.599,237.408c0.07,2.399-0.795,2.651-3.38,2.849c-1.225,0.098-2.566,0.193-3.688,0.055
	c-1.347-0.168-2.562-0.706-2.69-2.246c-0.093-1.065,0.122-2.394,0.071-3.777c-0.048-1.246,0.074-2.557,0.046-3.803
	c-0.029-1.401-0.337-2.712-0.36-3.79c-0.012-0.575,0.133-2.148,0.041-4.383c-0.053-1.264-0.413-2.724-0.482-4.347
	c-0.059-1.365-0.185-2.832-0.25-4.371c-0.063-1.412,0.303-2.909,0.238-4.406c-0.063-1.45-0.453-2.91-0.516-4.384
	c-0.065-1.473,0.11-2.957,0.046-4.407c-0.069-1.508-0.029-2.999-0.093-4.418c-0.069-1.551-0.616-3.012-0.673-4.383
	c-0.076-1.647,0.226-3.15,0.168-4.413c-0.122-2.683,0.935-6.083-0.349-4.359c-1.255,1.684-0.61,2.042-1.406,4.001
	c-0.795,1.95-0.998,1.868-1.793,3.819c-0.796,1.957-0.831,1.939-1.627,3.896c-0.802,1.966-0.795,1.971-1.597,3.935
	c-0.802,1.964-0.581,2.061-1.383,4.019c-0.8,1.957-0.737,1.987-1.539,3.945c-0.802,1.97-0.848,1.946-1.648,3.916
	c-0.802,1.964-1.191,1.797-1.993,3.761c-0.802,1.964-0.627,2.035-1.429,3.999c-0.802,1.957-0.924,1.905-1.724,3.862
	c-0.802,1.97-0.459,2.12-1.261,4.09c-0.808,1.976-0.779,1.981-1.585,3.958c-0.808,1.975-1.185,1.814-1.993,3.789
	c-0.807,1.977-0.476,2.133-1.446,4.029c-1.185,1.521-2.614,3.324-4.094,3.324c-1.545,0-4.142-1.191-4.984-2.832
	c-0.911-1.911-1.063-1.833-1.951-3.755c-0.882-1.916-0.743-1.988-1.631-3.904c-0.89-1.916-0.633-2.042-1.522-3.963
	c-0.895-1.929-0.9-1.929-1.795-3.855c-0.889-1.923-0.901-1.916-1.789-3.845c-0.895-1.928-0.994-1.88-1.882-3.802
	c-0.895-1.929-1.074-1.838-1.968-3.773c-0.895-1.927-0.674-2.035-1.568-3.963c-0.89-1.929-1.127-1.809-2.016-3.736
	c-0.895-1.922-0.859-1.939-1.747-3.862c-0.89-1.934-0.669-2.042-1.563-3.976s-1.021-1.874-1.916-3.808
	c-0.9-1.94-0.738-2.024-1.65-3.958c-0.918-1.934-1.126-1.827-2.056-3.754c-0.063,0.006-0.226,1.515-0.371,4.064
	c-0.065,1.18,0.162,2.587,0.086,4.145c-0.059,1.275-0.448,2.641-0.518,4.101c-0.063,1.317-0.057,2.706-0.122,4.132
	c-0.057,1.348-0.238,2.725-0.301,4.125c-0.063,1.371-0.006,2.767-0.063,4.155c-0.059,1.389-0.094,2.779-0.151,4.15
	c-0.065,1.413-0.25,2.796-0.308,4.155c-0.065,1.431-0.065,2.832-0.122,4.167c-0.065,1.467,0.208,2.875,0.15,4.162
	c-0.069,1.545-0.348,2.927-0.406,4.125c-0.093,1.994-0.313,3.431-0.366,4.12c-0.116,1.651,0.187,4.19-0.528,5.579
	c-0.528,1.024-3.793,0.84-4.867,0.797c-1.08-0.042-3.328,0.455-4.024-0.593c-0.587-0.881-0.383-4.496-0.373-5.664
	c0.012-1.18,0.465-2.641,0.505-4.348c0.029-1.311,0.012-2.771,0.059-4.34c0.04-1.365-0.187-2.821-0.139-4.342
	c0.041-1.396,0.458-2.832,0.505-4.329c0.046-1.413,0.051-2.867,0.104-4.354c0.046-1.412,0.105-2.861,0.158-4.322
	c0.046-1.432,0.076-2.886,0.126-4.347c0.048-1.456,0.053-2.916,0.105-4.378c0.053-1.454,0.134-2.915,0.186-4.364
	c0.052-1.467-0.139-2.934-0.086-4.377c0.052-1.473,0.244-2.929,0.296-4.359c0.053-1.49-0.221-2.97-0.174-4.39
	c0.052-1.508,0.307-2.964,0.354-4.363c0.053-1.527,0.128-2.988,0.168-4.359c0.046-1.582,0.25-3.042,0.286-4.366
	c0.046-1.694,0.173-3.148,0.196-4.322c0.006-1.484,0.013-2.724,0.07-3.771c0.094-1.737,0.006-2.971,0.477-3.706
	c0.592-0.929,1.648-0.881,3.362-0.636c1.621-0.065,2.812,0.03,3.764,0.378c1.458,0.533,2.498,1.208,3.039,2.293
	c0.581,1.161,0.836,2.526,1.307,3.724c0.388,1,0.777,2.461,1.503,4.145c0.518,1.202,1.29,2.479,1.94,3.963
	c0.558,1.258,1.051,2.646,1.678,4.065c0.575,1.281,1.092,2.672,1.713,4.061c0.587,1.311,1.331,2.593,1.947,3.964
	c0.585,1.317,1.139,2.683,1.748,4.041c0.598,1.33,0.964,2.784,1.574,4.131c0.61,1.354,1.631,2.516,2.242,3.869
	c0.61,1.353,0.865,2.873,1.464,4.208c0.609,1.366,1.358,2.647,1.952,3.977c0.615,1.383,1.08,2.809,1.667,4.126
	c0.627,1.401,1.503,2.628,2.079,3.927c0.627,1.426,1.057,2.856,1.615,4.132c0.644,1.484,1.312,2.82,1.835,4.047
	c0.69,1.617,1.231,3.233,1.642,4.294c0.686-1.191,1.134-2.61,1.663-3.628c0.703-1.348,1.417-2.419,1.747-3.305
	c0.349-0.941,0.627-2.396,1.273-4.066c0.453-1.161,0.998-2.474,1.562-3.916c0.482-1.233,1.011-2.557,1.556-3.945
	c0.5-1.27,1.208-2.516,1.749-3.88c0.505-1.289,1.04-2.605,1.574-3.958c0.512-1.306,0.813-2.719,1.341-4.054
	c0.522-1.317,1.383-2.515,1.905-3.845c0.524-1.328,0.739-2.79,1.254-4.107c0.529-1.341,1.145-2.635,1.661-3.938
	c0.535-1.36,1.22-2.624,1.732-3.923c0.539-1.378,1.01-2.736,1.509-4.018c0.547-1.401,0.872-2.81,1.354-4.053
	c0.575-1.474,1.075-2.834,1.528-4.019c0.638-1.658,1.44-2.893,1.777-3.832c0.476-1.324,0.604-2.875,1.499-3.869
	c0.738-0.82,1.974-1.396,3.804-1.437c1.424,0.037,2.649,0.317,3.637,0.479c1.568,0.263,2.66,0.735,2.66,2.113
	c0.034,1.168-0.111,2.647-0.059,4.377c0.04,1.317,0.093,2.784,0.146,4.37c0.046,1.372,0.36,2.827,0.412,4.372
	c0.046,1.4-0.181,2.873-0.128,4.389c0.046,1.419,0.181,2.881,0.233,4.376c0.051,1.433,0,2.899,0.051,4.39
	c0.048,1.432,0.181,2.886,0.233,4.354c0.046,1.442,0.057,2.909,0.109,4.376c0.046,1.463,0.21,2.923,0.261,4.39
	c0.048,1.467,0.036,2.94,0.088,4.4c0.046,1.48,0.175,2.947,0.221,4.401c0.052,1.485-0.168,2.964-0.122,4.413
	c0.053,1.491,0.295,2.951,0.343,4.39c0.046,1.508-0.117,2.986-0.071,4.412c0.046,1.527,0.117,3,0.164,4.406
	c0.053,1.545,0,3.019,0.046,4.395c0.053,1.6,0.168,3.079,0.208,4.402C385.129,234.808,385.546,236.265,385.599,237.408z"/>
<path fill="#EAEAEA" d="M493.395,237.156c0.609,1.46,0.192,2.185-0.866,2.616c-0.714,0.294-1.718,0.569-3.095,0.569
	c-1.436,0-2.66,0.316-3.637,0.258c-1.347-0.078-2.137-0.744-2.543-2.276c-0.355-0.748-1.086-2.49-1.905-4.472
	c-0.61-1.467-1.567-2.94-2.161-4.396c-0.895-2.215-1.429-4.155-1.608-4.615c-0.187-0.474-0.646-1.449-1.197-1.426
	c-0.354,0.013-1.8-0.018-3.856-0.054c-1.139-0.018-2.457-0.186-3.886-0.216c-1.237-0.03-2.555,0.055-3.896,0.024
	c-1.296-0.024-2.614-0.209-3.915-0.234c-1.343-0.023-2.661-0.053-3.904-0.076c-1.427-0.024-2.764,0.27-3.909,0.25
	c-1.991-0.024-3.42,0.043-3.886,0.066c-1.347,0.072-2.869-0.095-4.448-0.125c-1.464-0.03-2.986,0.059-4.479,0.011
	c-1.539-0.048-3.13-0.382-4.542-0.382c-0.429,0.851-1.01,2.478-1.747,4.233c-0.541,1.273-1.099,2.717-1.686,4.173
	c-0.575,1.412-1.091,2.873-1.625,4.216c-0.64,1.586-1.463,2.921-1.917,4.047c-0.987,1.749-3.641,0.851-5.285,0.725
	c-2.856-0.222-4.955,0.79-4.669-1.49c0.046-0.367,0.528-1.875,1.255-3.755c0.436-1.126,1.242-2.27,1.747-3.539
	c0.505-1.269,0.819-2.623,1.273-3.736c0.754-1.855,1.278-3.328,1.411-3.676c0.419-1.096,1.023-2.365,1.581-3.855
	c0.446-1.191,1.051-2.443,1.562-3.839c0.453-1.234,0.61-2.665,1.109-4.029c0.458-1.259,1.284-2.431,1.772-3.778
	c0.463-1.275,0.964-2.575,1.446-3.91c0.464-1.282,0.505-2.755,0.981-4.072c0.472-1.298,1.301-2.472,1.777-3.789
	c0.471-1.312,0.877-2.658,1.354-3.978c0.478-1.316,0.964-2.628,1.441-3.932c0.476-1.324,0.865-2.678,1.335-3.978
	c0.482-1.328,0.907-2.664,1.376-3.958c0.488-1.346,1.191-2.58,1.656-3.86c0.493-1.36,0.76-2.76,1.225-4.024
	c0.505-1.372,1.271-2.574,1.73-3.809c0.523-1.406,0.621-2.88,1.075-4.077c0.562-1.484,1.208-2.73,1.631-3.819
	c0.65-2.062,1.394-3.42,2.208-4.24c1.579-1.599,3.321-1.371,4.338-1.406c1.777-0.061,3.282-0.366,4.524,0.065
	c1.145,0.395,2.003,1.491,2.875,3.491c0.454,1.048,1.284,2.268,1.93,3.832c0.493,1.191,0.592,2.706,1.172,4.137
	c0.505,1.252,1.284,2.473,1.846,3.868c0.512,1.28,0.895,2.676,1.446,4.047c0.511,1.294,1.395,2.48,1.93,3.832
	c0.522,1.312,0.708,2.791,1.242,4.145c0.528,1.328,1.126,2.646,1.656,3.988c0.533,1.341,1.202,2.621,1.73,3.951
	c0.535,1.358,1.074,2.693,1.585,4.006c0.547,1.365,0.958,2.761,1.481,4.071c0.552,1.384,1.318,2.629,1.835,3.923
	c0.562,1.406,0.876,2.843,1.381,4.101c0.587,1.454,0.982,2.867,1.476,4.078c0.64,1.562,1.511,2.754,1.958,3.802
	c0.343,0.803,0.646,2.215,1.319,3.802c0.47,1.114,1.086,2.33,1.644,3.651c0.505,1.204,1.057,2.443,1.591,3.702
	c0.528,1.263,0.836,2.621,1.348,3.825c0.568,1.348,1.162,2.6,1.638,3.73C492.291,235.155,493.063,236.353,493.395,237.156
	L493.395,237.156z M473.84,214.253c-0.401-0.797-1.191-2.317-1.946-4.155c-0.493-1.198-1.114-2.544-1.718-4.06
	c-0.511-1.281-0.953-2.706-1.517-4.149c-0.522-1.328-0.945-2.76-1.503-4.173c-0.534-1.354-1.399-2.6-1.951-3.994
	c-0.547-1.377-0.749-2.91-1.302-4.286c-0.556-1.389-1.086-2.784-1.631-4.132c-0.575-1.413-1.562-2.605-2.109-3.934
	c-0.598-1.437-0.824-2.958-1.377-4.228c-0.65-1.49-1.33-2.82-1.886-4.001c-0.819-1.736-1.581-3.125-2.121-3.921
	c-0.318,0.809-0.83,2.28-1.503,4.077c-0.442,1.174-0.888,2.545-1.441,4.019c-0.463,1.25-1.179,2.515-1.701,3.921
	c-0.476,1.294-0.762,2.719-1.267,4.097c-0.487,1.322-1.271,2.557-1.771,3.915c-0.494,1.348-0.61,2.855-1.104,4.203
	c-0.505,1.36-1.149,2.658-1.643,3.981c-0.511,1.389-0.947,2.767-1.429,4.066c-0.518,1.413-1.063,2.742-1.528,3.999
	c-0.551,1.479-0.941,2.88-1.383,4.061c-0.667,1.772-1.486,3.215-1.816,4.047c0.958,0,2.631-0.078,4.536-0.048
	c1.312,0.023,2.804,0.019,4.408,0.048c1.4,0.03,2.886,0,4.414,0.03c1.446,0.03,2.928,0.354,4.409,0.39
	c1.497,0.029,2.996,0.042,4.454,0.072c1.533,0.028,3.027-0.193,4.431-0.163c1.616,0.03,3.113,0,4.432,0.018
	C471.213,213.99,472.916,214.259,473.84,214.253z"/>
<path fill="#EAEAEA" d="M582.146,218.648c-0.063,1.479-0.122,2.951-0.47,4.323c-0.361,1.412-0.931,2.76-1.558,4.047
	c-0.627,1.288-1.313,2.587-2.179,3.736c-0.848,1.126-1.858,2.186-2.909,3.161c-1.022,0.953-2.247,1.708-3.433,2.509
	c-1.155,0.785-2.312,1.641-3.595,2.264c-1.255,0.611-2.678,0.856-4.024,1.306c-1.319,0.437-2.608,1.096-3.997,1.371
	c-1.364,0.27-2.787,0.335-4.199,0.443c-1.388,0.102-2.8,0.065-4.21,0c-1.406-0.065-2.749-0.228-4.037-0.449
	c-1.383-0.234-2.724-0.46-3.984-0.838c-1.341-0.401-2.648-0.81-3.856-1.336c-1.29-0.569-2.567-1.101-3.712-1.754
	c-1.231-0.701-2.177-1.779-3.24-2.527c-1.174-0.825-2.445-1.389-3.433-2.196c-0.882-0.647-1.627-2.175-2.585-3.479
	c-0.953-1.294-2.073-2.474-2.631-3.402c-0.882-1.474-0.79-2.353-0.099-3.047c0.551-0.551,1.439-1.163,2.631-1.881
	c1.155-0.701,2.225-1.424,3.177-1.838c1.134-0.491,2.243-0.383,3.293,0.904c0.552,0.677,1.44,1.777,2.526,3.155
	c0.749,0.946,1.458,2.15,2.492,3.191c0.895,0.903,1.871,1.868,2.997,2.706c1.033,0.767,2.16,1.545,3.397,2.155
	c1.155,0.57,2.521,0.72,3.862,1.067c1.231,0.323,2.504,0.79,3.904,0.855c1.516,0.071,2.944-0.204,4.292-0.324
	c1.521-0.137,2.955-0.228,4.256-0.592c1.476-0.413,2.742-1.12,3.921-1.797c1.313-0.755,2.446-1.616,3.374-2.658
	c0.981-1.103,1.627-2.371,2.155-3.743c0.512-1.321,0.859-2.706,0.929-4.244c0.069-1.552-0.29-2.852-0.777-4.107
	c-0.523-1.342-1.214-2.509-2.148-3.551c-0.947-1.054-1.905-2.113-3.039-2.892c-1.226-0.845-2.537-1.461-3.694-2.024
	c-1.608-0.784-3.002-1.324-3.774-1.652c-1.376-0.587-2.753-1.162-4.142-1.718c-1.388-0.558-2.771-1.12-4.164-1.66
	c-1.394-0.538-2.868-0.855-4.262-1.389c-1.128-0.43-2.452-1.27-4.031-1.975c-1.261-0.564-2.533-1.372-3.892-2.163
	c-1.255-0.729-2.516-1.509-3.717-2.466c-1.156-0.922-2.271-1.911-3.259-3.079c-0.959-1.137-1.789-2.369-2.475-3.765
	c-0.645-1.317-1.127-2.726-1.434-4.294c-0.273-1.413-0.413-2.903-0.337-4.544c0.057-1.336,0.244-2.678,0.614-4.042
	c0.35-1.287,0.692-2.629,1.297-3.897c0.579-1.211,1.323-2.359,2.113-3.509c0.76-1.103,1.498-2.27,2.439-3.281
	c0.905-0.977,1.938-1.888,3.002-2.749c1.039-0.838,2.196-1.552,3.369-2.251c1.139-0.683,2.317-1.371,3.572-1.892
	c1.219-0.503,2.52-0.857,3.839-1.187c1.278-0.323,2.596-0.61,3.955-0.742c1.301-0.126,2.644,0.054,4.014,0.119
	c1.452,0.067,2.823-0.137,4.077,0.007c1.452,0.167,2.736,0.718,3.962,0.982c1.439,0.304,2.746,0.604,3.932,1.018
	c1.376,0.484,2.538,1.138,3.664,1.729c1.249,0.66,2.428,1.264,3.503,2.024c1.115,0.784,2.183,1.58,3.265,2.425
	c2.189,2.364,2.515,2.593,3.56,5.036c0.674,1.581-1.817,3.699-2.951,4.328c-1.335,0.749-2.259,1.647-3.188,1.791
	c-1.039,0.162-2.016-0.426-3.194-1.635c-0.657-0.67-1.528-1.783-2.76-2.875c-0.9-0.796-1.98-1.634-3.153-2.447
	c-1.039-0.719-2.288-1.211-3.52-1.814c-1.161-0.57-2.369-1.091-3.677-1.449c-1.237-0.341-2.532-0.408-3.892-0.474
	c-1.457-0.071-2.886-0.4-4.216-0.132c-1.412,0.288-2.771,0.827-3.997,1.449c-1.271,0.646-2.294,1.695-3.328,2.641
	c-1.051,0.964-2.265,1.825-3.024,3.036c-0.756,1.202-1.354,2.587-1.785,3.976c-0.417,1.354-0.707,2.832-0.772,4.305
	c-0.062,1.443,0.495,2.767,1.128,3.94c0.615,1.138,1.463,2.233,2.521,3.143c0.982,0.844,2.148,1.552,3.329,2.222
	c1.166,0.664,2.322,1.437,3.52,1.953c1.312,0.562,2.658,0.879,3.797,1.286c1.604,0.569,3.01,0.79,3.77,1.113
	c1.261,0.534,2.539,1.007,3.834,1.468c1.29,0.462,2.531,1.084,3.852,1.437c1.126,0.306,2.374,0.821,3.733,1.432
	c1.156,0.515,2.417,1.024,3.625,1.76c1.115,0.684,2.219,1.479,3.305,2.342c1.046,0.833,1.888,1.922,2.835,2.916
	c0.935,0.982,1.898,1.916,2.671,3.053c0.76,1.126,1.532,2.259,2.073,3.533c0.528,1.245,0.767,2.605,1.017,3.988
	C582.024,215.851,582.245,217.199,582.146,218.648z"/>
<path fill="#EAEAEA" d="M674.227,218.648c-0.063,1.479-0.122,2.951-0.47,4.323c-0.361,1.412-0.931,2.76-1.558,4.047
	c-0.627,1.288-1.313,2.587-2.179,3.736c-0.848,1.126-1.858,2.186-2.909,3.161c-1.022,0.953-2.247,1.708-3.433,2.509
	c-1.155,0.785-2.311,1.641-3.595,2.264c-1.255,0.611-2.678,0.856-4.024,1.306c-1.319,0.437-2.608,1.096-3.997,1.371
	c-1.364,0.27-2.787,0.335-4.199,0.443c-1.388,0.102-2.8,0.065-4.21,0c-1.406-0.065-2.748-0.228-4.037-0.449
	c-1.383-0.234-2.724-0.46-3.984-0.838c-1.341-0.401-2.648-0.81-3.856-1.336c-1.29-0.569-2.567-1.101-3.712-1.754
	c-1.231-0.701-2.177-1.779-3.24-2.527c-1.174-0.825-2.445-1.389-3.433-2.196c-0.882-0.647-1.627-2.175-2.585-3.479
	c-0.953-1.294-2.073-2.474-2.631-3.402c-0.882-1.474-0.789-2.353-0.099-3.047c0.551-0.551,1.439-1.163,2.631-1.881
	c1.155-0.701,2.225-1.424,3.177-1.838c1.134-0.491,2.243-0.383,3.293,0.904c0.552,0.677,1.44,1.777,2.526,3.155
	c0.749,0.946,1.458,2.15,2.492,3.191c0.895,0.903,1.871,1.868,2.997,2.706c1.033,0.767,2.16,1.545,3.397,2.155
	c1.155,0.57,2.521,0.72,3.862,1.067c1.231,0.323,2.504,0.79,3.904,0.855c1.516,0.071,2.944-0.204,4.292-0.324
	c1.521-0.137,2.955-0.228,4.256-0.592c1.476-0.413,2.742-1.12,3.921-1.797c1.313-0.755,2.446-1.616,3.374-2.658
	c0.981-1.103,1.627-2.371,2.155-3.743c0.512-1.321,0.859-2.706,0.929-4.244c0.069-1.552-0.29-2.852-0.777-4.107
	c-0.523-1.342-1.214-2.509-2.148-3.551c-0.947-1.054-1.905-2.113-3.039-2.892c-1.226-0.845-2.537-1.461-3.694-2.024
	c-1.608-0.784-3.002-1.324-3.774-1.652c-1.376-0.587-2.753-1.162-4.142-1.718c-1.388-0.558-2.771-1.12-4.164-1.66
	c-1.394-0.538-2.868-0.855-4.262-1.389c-1.128-0.43-2.452-1.27-4.031-1.975c-1.261-0.564-2.533-1.372-3.892-2.163
	c-1.255-0.729-2.516-1.509-3.717-2.466c-1.156-0.922-2.271-1.911-3.259-3.079c-0.959-1.137-1.789-2.369-2.475-3.765
	c-0.645-1.317-1.127-2.726-1.434-4.294c-0.273-1.413-0.413-2.903-0.337-4.544c0.057-1.336,0.244-2.678,0.614-4.042
	c0.35-1.287,0.692-2.629,1.297-3.897c0.579-1.211,1.323-2.359,2.113-3.509c0.76-1.103,1.498-2.27,2.439-3.281
	c0.905-0.977,1.938-1.888,3.002-2.749c1.039-0.838,2.196-1.552,3.369-2.251c1.139-0.683,2.317-1.371,3.572-1.892
	c1.219-0.503,2.52-0.857,3.839-1.187c1.278-0.323,2.596-0.61,3.955-0.742c1.301-0.126,2.644,0.054,4.014,0.119
	c1.452,0.067,2.823-0.137,4.077,0.007c1.452,0.167,2.736,0.718,3.962,0.982c1.439,0.304,2.746,0.604,3.932,1.018
	c1.376,0.484,2.538,1.138,3.664,1.729c1.249,0.66,2.428,1.264,3.503,2.024c1.115,0.784,2.183,1.58,3.265,2.425
	c2.188,2.364,2.515,2.593,3.56,5.036c0.674,1.581-1.817,3.699-2.951,4.328c-1.335,0.749-2.259,1.647-3.188,1.791
	c-1.039,0.162-2.016-0.426-3.194-1.635c-0.657-0.67-1.528-1.783-2.76-2.875c-0.9-0.796-1.98-1.634-3.153-2.447
	c-1.039-0.719-2.288-1.211-3.52-1.814c-1.161-0.57-2.369-1.091-3.677-1.449c-1.237-0.341-2.532-0.408-3.892-0.474
	c-1.457-0.071-2.886-0.4-4.216-0.132c-1.412,0.288-2.771,0.827-3.997,1.449c-1.271,0.646-2.294,1.695-3.328,2.641
	c-1.051,0.964-2.265,1.825-3.024,3.036c-0.756,1.202-1.354,2.587-1.785,3.976c-0.417,1.354-0.707,2.832-0.772,4.305
	c-0.062,1.443,0.495,2.767,1.128,3.94c0.615,1.138,1.463,2.233,2.521,3.143c0.982,0.844,2.148,1.552,3.329,2.222
	c1.166,0.664,2.322,1.437,3.52,1.953c1.312,0.562,2.658,0.879,3.797,1.286c1.604,0.569,3.01,0.79,3.771,1.113
	c1.26,0.534,2.538,1.007,3.833,1.468c1.29,0.462,2.531,1.084,3.852,1.437c1.126,0.306,2.374,0.821,3.733,1.432
	c1.156,0.515,2.417,1.024,3.625,1.76c1.115,0.684,2.219,1.479,3.305,2.342c1.046,0.833,1.888,1.922,2.835,2.916
	c0.935,0.982,1.898,1.916,2.671,3.053c0.76,1.126,1.532,2.259,2.073,3.533c0.528,1.245,0.767,2.605,1.017,3.988
	C674.105,215.851,674.326,217.199,674.227,218.648z"/>
<path fill="#EAEAEA" d="M778.504,239.772c-0.713,0.294-1.718,0.569-3.094,0.569c-1.436,0-2.661,0.316-3.637,0.258
	c-1.348-0.078-2.137-0.744-2.543-2.276c-0.355-0.748-1.087-2.49-1.905-4.472c-0.61-1.467-1.568-2.94-2.161-4.396
	c-0.895-2.215-1.43-4.155-1.608-4.615c-0.188-0.474-0.646-1.449-1.197-1.426c-0.354,0.013-1.8-0.018-3.856-0.054
	c-1.139-0.018-2.457-0.186-3.886-0.216c-1.237-0.03-2.556,0.055-3.896,0.024c-1.296-0.024-2.614-0.209-3.915-0.234
	c-1.342-0.023-2.66-0.053-3.903-0.076c-1.428-0.024-2.765,0.27-3.909,0.25c-1.991-0.024-3.421,0.043-3.886,0.066
	c-1.347,0.072-2.869-0.095-4.447-0.125c-1.465-0.03-2.987,0.059-4.479,0.011c-1.538-0.048-3.13-0.382-4.542-0.382
	c-0.43,0.851-1.011,2.478-1.747,4.233c-0.541,1.273-1.099,2.717-1.686,4.173c-0.575,1.412-1.091,2.873-1.626,4.216
	c-0.639,1.586-1.463,2.921-1.917,4.047c-0.987,1.749-3.642,0.851-5.285,0.725c-2.856-0.222-4.955,0.79-4.669-1.49
	c0.047-0.367,0.528-1.875,1.255-3.755c0.436-1.126,1.242-2.27,1.747-3.539c0.505-1.269,0.819-2.623,1.273-3.736
	c0.754-1.855,1.277-3.328,1.41-3.676c0.419-1.096,1.022-2.365,1.58-3.855c0.447-1.191,1.051-2.443,1.562-3.839
	c0.452-1.234,0.61-2.665,1.109-4.029c0.459-1.259,1.283-2.431,1.771-3.778c0.464-1.275,0.965-2.575,1.446-3.91
	c0.464-1.282,0.505-2.755,0.981-4.072c0.471-1.298,1.301-2.472,1.776-3.789c0.472-1.312,0.878-2.658,1.354-3.978
	c0.478-1.316,0.964-2.628,1.441-3.932c0.476-1.324,0.865-2.678,1.335-3.978c0.481-1.328,0.907-2.664,1.376-3.958
	c0.488-1.346,1.191-2.58,1.656-3.86c0.493-1.36,0.761-2.76,1.226-4.024c0.505-1.372,1.271-2.574,1.73-3.809
	c0.523-1.406,0.621-2.88,1.075-4.077c0.562-1.484,1.208-2.73,1.632-3.819c0.65-2.062,1.394-3.42,2.207-4.24
	c1.579-1.599,3.322-1.371,4.339-1.406c1.776-0.061,3.281-0.366,4.523,0.065c1.145,0.395,2.004,1.491,2.875,3.491
	c0.454,1.048,1.284,2.268,1.93,3.832c0.493,1.191,0.592,2.706,1.173,4.137c0.505,1.252,1.283,2.473,1.846,3.868
	c0.512,1.28,0.895,2.676,1.446,4.047c0.512,1.294,1.396,2.48,1.93,3.832c0.522,1.312,0.707,2.791,1.242,4.145
	c0.528,1.328,1.126,2.646,1.656,3.988c0.533,1.341,1.202,2.621,1.73,3.951c0.534,1.358,1.073,2.693,1.585,4.006
	c0.547,1.365,0.958,2.761,1.481,4.071c0.552,1.384,1.318,2.629,1.835,3.923c0.562,1.406,0.876,2.843,1.382,4.101
	c0.587,1.454,0.982,2.867,1.476,4.078c0.64,1.562,1.511,2.754,1.957,3.802c0.343,0.803,0.646,2.215,1.319,3.802
	c0.47,1.114,1.086,2.33,1.644,3.651c0.506,1.204,1.058,2.443,1.592,3.702c0.528,1.263,0.836,2.621,1.347,3.825
	c0.569,1.348,1.162,2.6,1.638,3.73c0.668,1.586,1.44,2.784,1.772,3.587C779.979,238.616,779.562,239.341,778.504,239.772z
	 M759.815,214.253c-0.402-0.797-1.191-2.317-1.947-4.155c-0.492-1.198-1.113-2.544-1.718-4.06c-0.512-1.281-0.953-2.706-1.517-4.149
	c-0.522-1.328-0.946-2.76-1.504-4.173c-0.534-1.354-1.399-2.6-1.951-3.994c-0.547-1.377-0.749-2.91-1.303-4.286
	c-0.556-1.389-1.086-2.784-1.631-4.132c-0.575-1.413-1.562-2.605-2.109-3.934c-0.598-1.437-0.823-2.958-1.376-4.228
	c-0.65-1.49-1.33-2.82-1.887-4.001c-0.818-1.736-1.58-3.125-2.121-3.921c-0.318,0.809-0.83,2.28-1.503,4.077
	c-0.442,1.174-0.889,2.545-1.441,4.019c-0.464,1.25-1.179,2.515-1.701,3.921c-0.476,1.294-0.762,2.719-1.267,4.097
	c-0.487,1.322-1.271,2.557-1.771,3.915c-0.495,1.348-0.61,2.855-1.105,4.203c-0.505,1.36-1.149,2.658-1.642,3.981
	c-0.512,1.389-0.947,2.767-1.43,4.066c-0.518,1.413-1.062,2.742-1.527,3.999c-0.552,1.479-0.941,2.88-1.383,4.061
	c-0.668,1.772-1.486,3.215-1.817,4.047c0.958,0,2.631-0.078,4.536-0.048c1.312,0.023,2.805,0.019,4.408,0.048
	c1.399,0.03,2.886,0,4.414,0.03c1.445,0.03,2.927,0.354,4.409,0.39c1.497,0.029,2.995,0.042,4.454,0.072
	c1.532,0.028,3.026-0.193,4.431-0.163c1.616,0.03,3.113,0,4.433,0.018C757.188,213.99,758.891,214.259,759.815,214.253z"/>
<path fill="#EAEAEA" d="M884.611,209.75c-0.188,1.391-0.703,2.736-1.069,4.138c-0.354,1.365-0.541,2.809-1.057,4.149
	c-0.512,1.312-1.133,2.605-1.795,3.88c-0.65,1.245-1.586,2.33-2.377,3.521c-0.776,1.167-1.503,2.383-2.414,3.479
	c-0.901,1.072-1.97,1.977-2.997,2.958c-1.006,0.965-1.993,1.946-3.12,2.808c-1.103,0.839-2.288,1.558-3.502,2.282
	c-1.185,0.706-2.241,1.729-3.532,2.312c-1.248,0.562-2.706,0.634-4.054,1.071c-1.294,0.419-2.538,1.168-3.926,1.449
	c-1.336,0.274-2.742,0.353-4.159,0.491c-1.359,0.132-2.753-0.037-4.176-0.037c-1.469,0-2.909,0.282-4.304,0.139
	c-1.457-0.149-2.88-0.414-4.25-0.718c-1.43-0.319-2.726-1.007-4.061-1.474c-1.377-0.486-2.835-0.707-4.112-1.336
	c-1.301-0.647-2.55-1.407-3.747-2.197c-1.208-0.803-2.166-1.952-3.263-2.886c-1.104-0.941-2.37-1.701-3.357-2.767
	s-1.783-2.311-2.649-3.491c-0.859-1.167-1.823-2.28-2.566-3.55c-0.738-1.252-1.365-2.593-1.98-3.935
	c-0.61-1.323-1.069-2.729-1.558-4.125c-0.481-1.384-1.027-2.755-1.394-4.191c-0.359-1.419-0.505-2.897-0.743-4.359
	c-0.237-1.443-0.378-2.91-0.499-4.388c-0.122-1.463-0.372-2.93-0.372-4.414c0-1.479,0.175-2.946,0.302-4.394
	c0.128-1.474,0.233-2.94,0.488-4.377c0.256-1.449,0.865-2.804,1.248-4.21c0.39-1.419,0.459-2.946,0.97-4.305
	c0.518-1.372,1.505-2.528,2.139-3.832c0.638-1.317,1.225-2.641,1.975-3.88c0.755-1.246,1.574-2.433,2.439-3.587
	c0.871-1.163,1.667-2.383,2.647-3.438c0.981-1.061,1.882-2.239,2.968-3.179c1.087-0.946,2.383-1.636,3.566-2.443
	c1.18-0.809,2.492-1.378,3.765-2.042c1.26-0.664,2.486-1.408,3.827-1.916c1.317-0.497,2.671-0.952,4.066-1.293
	c1.364-0.33,2.758-0.653,4.192-0.82c1.394-0.167,2.823,0.048,4.27,0.048c1.498,0,2.904,0.023,4.245,0.119
	c1.499,0.108,2.928,0.007,4.252,0.215c1.481,0.234,2.881,0.469,4.163,0.815c1.465,0.396,2.684,1.179,3.909,1.695
	c1.399,0.592,2.742,1.035,3.875,1.742c1.283,0.801,2.469,1.604,3.473,2.489c1.133,1.007,2.027,2.133,2.893,3.162
	c0.982,1.167,1.713,2.401,2.479,3.479c1.389,1.945,1.29,3.663-0.859,5.508c-1.092,0.939-2.235,1.306-3.159,1.623
	c-1.093,0.377-1.945,0.222-3.113-0.712c-0.377-0.306-1.678-1.191-3.281-2.773c-0.895-0.881-1.714-2.167-2.985-3.138
	c-1.058-0.813-2.307-1.562-3.63-2.298c-1.186-0.666-2.48-1.288-3.875-1.792c-1.289-0.467-2.694-0.747-4.157-1.005
	c-1.343-0.234-2.76-0.306-4.252-0.306c-1.343,0-2.73-0.113-4.083,0.144c-1.318,0.251-2.579,0.856-3.874,1.347
	c-1.254,0.474-2.637,0.762-3.852,1.45c-1.172,0.664-2.09,1.796-3.199,2.651c-1.069,0.827-2.201,1.605-3.188,2.605
	c-0.953,0.964-1.807,2.047-2.661,3.167c-0.824,1.084-1.631,2.204-2.353,3.419c-0.69,1.174-1.213,2.468-1.787,3.767
	c-0.559,1.251-1.257,2.468-1.686,3.832c-0.413,1.3-0.47,2.724-0.754,4.126c-0.28,1.341-0.977,2.651-1.122,4.083
	c-0.139,1.365,0.053,2.796,0.035,4.24c-0.019,1.43-0.128,2.843-0.019,4.208c0.116,1.426,0.687,2.755,0.937,4.103
	c0.261,1.406,0.215,2.855,0.608,4.167c0.413,1.364,0.965,2.658,1.505,3.916c0.564,1.298,1.33,2.461,2.021,3.635
	c0.715,1.209,1.492,2.341,2.334,3.411c0.86,1.103,1.69,2.211,2.673,3.157c0.998,0.964,2.206,1.616,3.315,2.406
	c1.115,0.797,2.149,1.713,3.363,2.324c1.215,0.609,2.429,1.293,3.724,1.706c1.283,0.412,2.688,0.364,4.037,0.574
	c1.33,0.209,2.654,0.6,4.024,0.6c1.383,0,2.718-0.181,4.001-0.348c1.366-0.18,2.667-0.473,3.922-0.82
	c1.317-0.371,2.677-0.588,3.866-1.119c1.25-0.558,2.423-1.27,3.526-1.988c1.15-0.748,2.079-1.785,3.066-2.671
	c1.022-0.916,2.132-1.729,2.98-2.76c0.877-1.065,1.521-2.294,2.206-3.443c0.709-1.186,1.139-2.491,1.639-3.73
	c0.522-1.293,1.236-2.491,1.526-3.796c0.31-1.371,0.442-2.803,0.488-4.131c-1.033,0-2.578,0.208-4.298,0.19
	c-1.312-0.018-2.764,0.037-4.252,0.018c-1.41-0.018-2.856-0.089-4.263-0.112c-1.516-0.024-2.974-0.497-4.28-0.521
	c-1.789-0.03-3.282,0.137-4.229,0.113c-1.526-0.041-3.275-0.119-4.368-0.909c-1.248-0.905-1.806-2.88-1.713-4.216
	c0.088-1.264,0.722-4.635,1.848-4.677c1.231-0.048,2.759,0.354,4.454,0.323c1.376-0.023,2.869-0.232,4.437-0.245
	c1.441-0.013,2.94,0.215,4.462,0.215c1.48,0.007,2.985-0.221,4.472-0.208c1.534,0.011,3.043-0.174,4.495-0.15
	c1.581,0.024,3.084,0.222,4.473,0.263c1.697,0.048,3.2,0.408,4.432,0.479c1.511,0,2.498,0.229,3.294,0.684
	c1.166,0.664,1.578,1.543,1.806,2.699c0.231,1.191,0.268,2.45,0.261,3.551C884.668,206.847,884.773,208.283,884.611,209.75z"/>
<path fill="#EAEAEA" d="M931.894,166.593c-0.109,0.879-0.417,2.137-0.516,3.587c-0.082,1.22,0.099,2.543,0.04,3.724
	c-0.08,1.646-0.175,3.047-0.179,3.658c-0.007,0.658-0.244,2.216-0.228,4.119c0.013,1.275,0.162,2.712,0.181,4.138
	c0.018,1.449-0.135,2.886-0.117,4.148c0.029,2.372-1.266,2.773,0.181,4.199c1.528,1.508,1.776,0.047,4.304-0.024
	c1.242-0.036,2.678-0.473,4.223-0.516c1.37-0.035,2.829,0.371,4.279,0.336c1.446-0.037,2.895-0.462,4.271-0.486
	c1.545-0.035,3.008,0.072,4.273,0.061c2.109-0.023,3.671,0.209,4.258,0.263c1.295,0.121,2.975-0.137,4.74-0.064
	c1.556,0.061,3.193,0.143,4.738,0.19c1.789,0.061,3.329,0.354,4.601,0.419c0.32,1.742,0.825,3.085,0.865,4.288
	c0.063,1.916-0.412,3.323-1.51,4.077c-0.877,0.605-2.3,0.568-4.247,0.563c-0.72,0.042-2.281,0.413-4.384,0.467
	c-1.29,0.03-2.783-0.114-4.391-0.084c-1.383,0.03-2.858,0.245-4.385,0.275c-1.441,0.03-2.917-0.007-4.397,0.018
	c-1.487,0.025-2.974-0.053-4.42-0.029c-1.528,0.024-3.008,0.174-4.403,0.191c-1.614,0.018-3.113-0.119-4.407-0.102
	c-2.073,0.023-3.7,0.036-4.461,0.036c-0.359,1.58,0.203,2.019,0.15,3.316c-0.034,0.803-0.14,2.467-0.121,4.55
	c0.012,1.385,0.121,2.947,0.146,4.563c0.018,1.515-0.239,3.084-0.21,4.594c0.029,1.651,0.442,3.22,0.472,4.592
	c0.052,2.688-1.807,3.083-0.28,4.736c1.47,1.587,1.858-0.048,4.433-0.061c1.236-0.006,2.688,0,4.252-0.006
	c1.347-0.005,2.787-0.179,4.256-0.186c1.417-0.006,2.858-0.221,4.281-0.228c1.463-0.006,2.909,0.234,4.269,0.234
	c1.556,0,3.008,0.185,4.269,0.185c2.067,0,3.612-0.167,4.263-0.156c1.326,0.024,3.026-0.035,4.833-0.065
	c1.591-0.023,3.265-0.119,4.85-0.125c1.812-0.007,3.498,0.306,4.815,0.412c1.545,0.126,2.038,2.94,2.858,4.205
	c0.783,1.209,1.364,2.472,1.195,3.58c-0.186,1.232-1.092,2.268-2.747,2.317c-1.028,0.028-2.509-0.282-4.314-0.265
	c-1.273,0.013-2.713,0.239-4.281,0.245c-1.348,0.007-2.789,0.085-4.298,0.085c-1.389,0-2.829-0.126-4.311-0.126
	c-1.404-0.006-2.851-0.144-4.309-0.149c-1.43-0.007-2.882,0.334-4.328,0.329c-1.445-0.013-2.892-0.401-4.321-0.414
	c-1.463-0.011-2.915-0.054-4.332-0.071c-1.487-0.011-2.944,0.438-4.338,0.419c-1.517-0.018-2.963-0.43-4.316-0.454
	c-1.579-0.023-3.037,0.018-4.321-0.013c-1.8-0.048-3.27-0.108-4.292-0.167c-1.214-0.067-3.345-2.186-3.345-3.396
	c0.005-1.186-0.053-2.598-0.047-4.203c0-1.287,0.238-2.7,0.244-4.215c0.005-1.33-0.216-2.736-0.21-4.216
	c0.007-1.354,0.313-2.767,0.32-4.221c0.006-1.371-0.396-2.784-0.39-4.229c0.006-1.376,0.169-2.784,0.175-4.221
	c0.011-1.389-0.047-2.802-0.04-4.228c0.004-1.395,0.057-2.797,0.063-4.209c0.006-1.401-0.105-2.814-0.1-4.228
	c0.013-1.412,0.232-2.825,0.238-4.233c0.013-1.419-0.273-2.832-0.261-4.238c0.011-1.425,0.488-2.833,0.499-4.233
	c0.012-1.425-0.244-2.845-0.232-4.233c0.011-1.438,0.18-2.851,0.191-4.233c0.012-1.449-0.354-2.868-0.343-4.246
	c0.018-1.46,0.396-2.873,0.406-4.231c0.019-1.479-0.04-2.893-0.027-4.229c0.017-1.515-0.122-2.935-0.105-4.232
	c0.018-1.581,0.069-3.072,0.087-4.281c1.389-0.073,2.869,0.024,4.287,0.053c1.41,0.03,2.84-0.154,4.227-0.083
	c1.436,0.078,2.835,0.401,4.188,0.456c1.476,0.053,2.893,0.238,4.199,0.174c0.604-0.03,2.051-0.421,4.061-0.449
	c1.185-0.024,2.566,0.232,4.077,0.215c1.277-0.018,2.647-0.12,4.077-0.139c1.324-0.018,2.694-0.053,4.083-0.065
	c1.364-0.011,2.741,0.228,4.106,0.215c1.394-0.011,2.764-0.076,4.095-0.089c1.429-0.012,2.799-0.27,4.077-0.275
	c1.504-0.007,2.887,0.221,4.072,0.221c2.004-0.006,3.461-0.173,4.064-0.155c2.357,0,3.734,0.233,4.361,0.863
	c0.947,0.952,0.273,2.658,0.273,4.489c-0.145,1.714-0.499,2.827-1.149,3.606c-0.749,0.902-1.801,1.556-3.387,1.543
	c-0.818-0.005-2.201-0.239-3.99-0.239c-1.173-0.006-2.514-0.041-3.984-0.041c-1.248,0-2.585-0.013-3.989-0.013
	c-1.29,0-2.631-0.144-4.003-0.144c-1.312,0-2.654,0.102-4.008,0.102c-1.341,0-2.688-0.155-4.03-0.155c-1.353,0-2.694,0-4.013,0
	c-1.376,0-2.724,0.312-4.02,0.312c-1.4,0-2.741,0.072-3.995,0.072c-1.47,0.006-2.823-0.163-4.002-0.163
	C934.092,166.477,932.766,166.568,931.894,166.593z"/>
<g>
</g>
<g>
</g>
<g>
</g>
<g>
</g>
<g>
</g>
<g>
</g>
</svg>
