<?xml version="1.0" encoding="utf-8"?>
<!-- Generator: Adobe Illustrator 25.2.0, SVG Export Plug-In . SVG Version: 6.00 Build 0)  -->
<svg version="1.1" id="Calque_1" xmlns="http://www.w3.org/2000/svg" xmlns:xlink="http://www.w3.org/1999/xlink" x="0px" y="0px"
	 viewBox="0 0 2500 2500" style="enable-background:new 0 0 2500 2500;" xml:space="preserve">
<style type="text/css">
	.st0{fill-rule:evenodd;clip-rule:evenodd;fill:#000000;}
	.st1{fill-rule:evenodd;clip-rule:evenodd;}
</style>
<g>
	<path class="st0" d="M2380.4,1506.5v-129.4h-2263v129.4H2380.4L2380.4,1506.5z"/>
	<path class="st1" d="M174,1394.4h71.6c17.3,0,38.1,6.9,38.1,27.7c0,19.7-20.8,27.7-39.3,27.7h-52v41.6h-18.5L174,1394.4L174,1394.4
		L174,1394.4z M192.4,1438.3h43.9c17.3,0,27.7-4.6,27.7-16.2c0-10.4-6.9-16.2-24.3-16.2h-47.4L192.4,1438.3L192.4,1438.3
		L192.4,1438.3z M355.3,1394.4H420c23.1,0,46.2,5.8,46.2,27.7c0,12.7-8.1,24.3-32.3,27.7l39.3,41.6H450l-39.3-41.6h-37v41.6h-18.5
		V1394.4z M373.8,1439.4h43.9c17.3,0,30-4.6,30-17.3c0-12.7-12.7-16.2-30-16.2h-43.9V1439.4z M595.6,1392.1
		c35.8,0,57.8,20.8,57.8,50.8c0,30-21.9,50.8-57.8,50.8c-35.8,0-57.8-20.8-57.8-50.8C537.8,1412.9,559.8,1392.1,595.6,1392.1z
		 M595.6,1483.4c28.9,0,41.6-19.6,41.6-40.4c0-20.8-12.7-40.4-41.6-40.4c-27.7,0-41.6,19.6-41.6,40.4
		C554,1463.7,567.9,1483.4,595.6,1483.4z M719.2,1394.4h92.4v11.6h-72.8v28.9H807v10.4h-68.2v46.2h-19.6V1394.4z M893.6,1394.4
		h101.7v11.6h-83.2v30h71.6v10.4h-71.6v33.5h84.3v11.6H893.6V1394.4z M1140.8,1409.4c-10.4-2.3-16.2-3.5-27.7-3.5
		s-24.3,2.3-24.3,12.7c0,18.5,61.2,13.9,61.2,45c0,20.8-23.1,28.9-52,28.9c-10.4,0-20.8-2.3-30-3.5l2.3-13.9
		c6.9,2.3,19.6,5.8,30,5.8c11.6,0,27.7-4.6,27.7-16.2c0-22-61.2-15-61.2-45.1c0-17.3,19.6-26.6,46.2-26.6c9.2,0,20.8,1.2,30,3.5
		L1140.8,1409.4L1140.8,1409.4z M1297.9,1409.4c-10.4-2.3-16.2-3.5-26.6-3.5c-11.6,0-25.4,2.3-25.4,12.7c0,18.5,62.4,13.9,62.4,45
		c0,20.8-24.2,28.9-53.1,28.9c-9.2,0-19.6-2.3-28.9-3.5l2.3-13.9c6.9,2.3,18.5,5.8,28.9,5.8c12.7,0,28.9-4.6,28.9-16.2
		c0-22-62.4-15-62.4-45.1c0-17.3,20.8-26.6,46.2-26.6c10.4,0,20.8,1.2,31.2,3.5L1297.9,1409.4z M1389.2,1394.4h19.6v97.1h-19.6
		V1394.4z M1545.2,1392.1c35.8,0,57.8,20.8,57.8,50.8c0,30-21.9,50.8-57.8,50.8s-57.8-20.8-57.8-50.8
		C1487.4,1412.9,1509.3,1392.1,1545.2,1392.1z M1545.2,1483.4c27.7,0,41.6-19.6,41.6-40.4c0-20.8-13.9-40.4-41.6-40.4
		c-28.9,0-41.6,19.6-41.6,40.4C1503.6,1463.7,1516.3,1483.4,1545.2,1483.4z M1668.8,1394.4h18.5l76.2,76.2h1.2v-76.2h17.3v97.1
		h-18.5l-76.2-76.2h-1.1v76.2h-17.3V1394.4z M1865.1,1394.4h19.6l76.2,76.2v-76.2h17.3v97.1h-18.5l-76.2-76.2h-1.2v76.2h-17.3
		V1394.4z M2061.5,1394.4h101.7v11.6h-82v30h70.5v10.4h-70.5v33.5h83.2v11.6h-102.8V1394.4z M2239.4,1394.4h18.5v85.5h72.8v11.6
		h-91.3V1394.4L2239.4,1394.4z"/>
	<path class="st0" d="M2167.8,1236.1h8.1c3.5,0,4.6,1.2,5.8,2.3c1.2,1.1,1.2,2.3,1.2,3.4c0,2.3-1.2,4.6-6.9,4.6h-8.1V1236.1z
		 M2167.8,1266.2v-13.9h10.4c6.9,0,12.7-3.5,12.7-10.4c0-3.4-2.3-6.9-5.8-9.2c-2.3-1.1-4.6-1.1-8.1-1.1h-16.2v34.7H2167.8
		L2167.8,1266.2z M2217.5,1252.3l5.8-15l5.8,15H2217.5L2217.5,1252.3z M2229,1231.5h-9.2l-12.7,34.7h5.8l3.5-8.1h15l3.5,8.1h6.9
		L2229,1231.5L2229,1231.5z M2271.8,1236.1h9.2c5.8,0,6.9,2.3,6.9,5.8c0,3.5-3.5,4.6-6.9,4.6h-9.2V1236.1z M2296,1266.2l-6.9-15
		c1.2-1.1,6.9-3.5,6.9-9.2c0.1-3.1-1.2-6-3.5-8.1c-3.2-1.6-6.8-2.4-10.4-2.3h-17.3v34.7h6.9v-15h10.4l5.8,15H2296z M2320.3,1231.5
		h8.1v34.6h-8.1V1231.5z M2357.3,1255.8c0,1.1,1.1,3.4,4.6,4.6c2.3,1.2,3.5,1.2,4.6,1.2c6.9,0,8.1-3.5,8.1-4.6
		c0-3.5-3.5-4.6-4.6-4.6l-9.2-2.3c-5.8-1.2-8.1-4.6-8.1-9.2c0-5.8,5.8-10.4,13.9-10.4c3.5,0,8.1,1.2,10.4,3.5
		c2.3,1.2,3.5,3.5,3.5,4.6l-6.9,1.1c0-1.1-1.1-3.5-6.9-3.5s-6.9,2.3-6.9,3.5c0,3.5,3.5,4.6,5.8,4.6l6.9,1.2
		c3.5,1.2,10.4,2.3,10.4,10.4c0,6.9-6.9,10.4-16.2,10.4c-4.6,0-9.2-1.2-12.7-3.5c-2.3-1.1-2.3-3.5-3.5-4.6L2357.3,1255.8
		L2357.3,1255.8z M1347.6,1315.9h292.3V1280h-241.4v-113.2h181.4v-37h-181.4v-105.1h241.4v-35.8h-292.3L1347.6,1315.9L1347.6,1315.9
		z M1500.1,936.9l-39.3,43.9l123.6-43.9H1500.1z"/>
	<path class="st0" d="M2130.8,1280V988.9h-46.2v326.9h295.7V1280H2130.8L2130.8,1280z M1829.3,988.9L1663,1315.9h56.6l42.7-84.3
		H1961l42.7,84.3h55.4l-166.3-326.9H1829.3L1829.3,988.9z M1783.1,1191.1l78.6-155.9l78.6,155.9H1783.1L1783.1,1191.1z
		 M1189.4,1179.5c75.1-19.6,82-75.1,82-95.9c-4.6-57.8-43.9-94.7-114.4-94.7H951.4v326.9h46.2v-136.3h134l99.3,136.3h58.9
		C1289.9,1315.9,1218.2,1223.4,1189.4,1179.5L1189.4,1179.5z M1150.1,1140.3H997.6v-112.1h158.3c35.8,0,56.6,17.3,63.5,38.1
		c5.8,15,2.3,34.7-5.8,47.4C1200.9,1135.6,1175.5,1140.3,1150.1,1140.3L1150.1,1140.3z M669.5,934.6c-132.8,0-223,92.4-223,205.6
		c0,119,99.3,203.3,223,203.3c122.5,0,221.8-83.2,221.8-203.3C891.3,1027,800.1,934.6,669.5,934.6L669.5,934.6z M667.2,1303.1
		c-91.3,0-167.5-73.9-167.5-162.9c0-87.8,72.8-165.2,171-165.2c97,0,167.5,77.4,167.5,165.2C838.2,1229.2,759.6,1303.1,667.2,1303.1
		L667.2,1303.1z M327.6,1105.6h34.7l61.2-116.7h-49.7L327.6,1105.6L327.6,1105.6z M162.4,1280V988.9h-45.1v326.9h294.6V1280H162.4z"
		/>
</g>
</svg>
