<?xml version="1.0" encoding="utf-8"?>
<!-- Generator: Adobe Illustrator 25.2.0, SVG Export Plug-In . SVG Version: 6.00 Build 0)  -->
<svg version="1.1" id="Calque_1" xmlns="http://www.w3.org/2000/svg" xmlns:xlink="http://www.w3.org/1999/xlink" x="0px" y="0px"
	 viewBox="0 0 2500 672.1" style="enable-background:new 0 0 2500 672.1;" xml:space="preserve">
<style type="text/css">
	.st0{fill-rule:evenodd;clip-rule:evenodd;fill:#FFFFFF;}
	.st1{fill-rule:evenodd;clip-rule:evenodd;}
</style>
<g>
	<path class="st0" d="M2380.4,616.6V487.2h-2263v129.4H2380.4L2380.4,616.6z"/>
	<path class="st1" d="M174,504.5h71.6c17.3,0,38.1,6.9,38.1,27.7c0,19.7-20.8,27.7-39.3,27.7h-52v41.6h-18.5L174,504.5L174,504.5
		L174,504.5z M192.4,548.4h43.9c17.3,0,27.7-4.6,27.7-16.2c0-10.4-6.9-16.2-24.3-16.2h-47.4L192.4,548.4L192.4,548.4L192.4,548.4z
		 M355.3,504.5H420c23.1,0,46.2,5.8,46.2,27.7c0,12.7-8.1,24.3-32.3,27.7l39.3,41.6H450l-39.3-41.6h-37v41.6h-18.5L355.3,504.5
		L355.3,504.5z M373.8,549.5h43.9c17.3,0,30-4.6,30-17.3c0-12.7-12.7-16.2-30-16.2h-43.9V549.5z M595.6,502.2
		c35.8,0,57.8,20.8,57.8,50.8s-21.9,50.8-57.8,50.8c-35.8,0-57.8-20.8-57.8-50.8S559.8,502.2,595.6,502.2z M595.6,593.5
		c28.9,0,41.6-19.6,41.6-40.4s-12.7-40.4-41.6-40.4c-27.7,0-41.6,19.6-41.6,40.4C554,573.8,567.9,593.5,595.6,593.5z M719.2,504.5
		h92.4v11.6h-72.8V545H807v10.4h-68.2v46.2h-19.6V504.5z M893.6,504.5h101.7v11.6h-83.2v30h71.6v10.4h-71.6V590h84.3v11.6H893.6
		V504.5z M1140.8,519.5c-10.4-2.3-16.2-3.5-27.7-3.5s-24.3,2.3-24.3,12.7c0,18.5,61.2,13.9,61.2,45c0,20.8-23.1,28.9-52,28.9
		c-10.4,0-20.8-2.3-30-3.5l2.3-13.9c6.9,2.3,19.6,5.8,30,5.8c11.6,0,27.7-4.6,27.7-16.2c0-22-61.2-15-61.2-45.1
		c0-17.3,19.6-26.6,46.2-26.6c9.2,0,20.8,1.2,30,3.5L1140.8,519.5L1140.8,519.5z M1297.9,519.5c-10.4-2.3-16.2-3.5-26.6-3.5
		c-11.6,0-25.4,2.3-25.4,12.7c0,18.5,62.4,13.9,62.4,45c0,20.8-24.2,28.9-53.1,28.9c-9.2,0-19.6-2.3-28.9-3.5l2.3-13.9
		c6.9,2.3,18.5,5.8,28.9,5.8c12.7,0,28.9-4.6,28.9-16.2c0-22-62.4-15-62.4-45.1c0-17.3,20.8-26.6,46.2-26.6
		c10.4,0,20.8,1.2,31.2,3.5L1297.9,519.5z M1389.2,504.5h19.6v97.1h-19.6V504.5z M1545.2,502.2c35.8,0,57.8,20.8,57.8,50.8
		s-21.9,50.8-57.8,50.8s-57.8-20.8-57.8-50.8C1487.4,523,1509.3,502.2,1545.2,502.2z M1545.2,593.5c27.7,0,41.6-19.6,41.6-40.4
		s-13.9-40.4-41.6-40.4c-28.9,0-41.6,19.6-41.6,40.4C1503.6,573.8,1516.3,593.5,1545.2,593.5z M1668.8,504.5h18.5l76.2,76.2h1.2
		v-76.2h17.3v97.1h-18.5l-76.2-76.2h-1.1v76.2h-17.3L1668.8,504.5L1668.8,504.5z M1865.1,504.5h19.6l76.2,76.2v-76.2h17.3v97.1
		h-18.5l-76.2-76.2h-1.2v76.2H1865L1865.1,504.5L1865.1,504.5z M2061.5,504.5h101.7v11.6h-82v30h70.5v10.4h-70.5V590h83.2v11.6
		h-102.8L2061.5,504.5L2061.5,504.5z M2239.4,504.5h18.5V590h72.8v11.6h-91.3V504.5L2239.4,504.5z"/>
	<path class="st0" d="M2167.8,346.2h8.1c3.5,0,4.6,1.2,5.8,2.3c1.2,1.1,1.2,2.3,1.2,3.4c0,2.3-1.2,4.6-6.9,4.6h-8.1v-10.3H2167.8z
		 M2167.8,376.3v-13.9h10.4c6.9,0,12.7-3.5,12.7-10.4c0-3.4-2.3-6.9-5.8-9.2c-2.3-1.1-4.6-1.1-8.1-1.1h-16.2v34.7L2167.8,376.3
		L2167.8,376.3z M2217.5,362.4l5.8-15l5.8,15H2217.5L2217.5,362.4z M2229,341.6h-9.2l-12.7,34.7h5.8l3.5-8.1h15l3.5,8.1h6.9
		L2229,341.6L2229,341.6z M2271.8,346.2h9.2c5.8,0,6.9,2.3,6.9,5.8s-3.5,4.6-6.9,4.6h-9.2V346.2z M2296,376.3l-6.9-15
		c1.2-1.1,6.9-3.5,6.9-9.2c0.1-3.1-1.2-6-3.5-8.1c-3.2-1.6-6.8-2.4-10.4-2.3h-17.3v34.7h6.9v-15h10.4l5.8,15L2296,376.3L2296,376.3z
		 M2320.3,341.6h8.1v34.6h-8.1V341.6z M2357.3,365.9c0,1.1,1.1,3.4,4.6,4.6c2.3,1.2,3.5,1.2,4.6,1.2c6.9,0,8.1-3.5,8.1-4.6
		c0-3.5-3.5-4.6-4.6-4.6l-9.2-2.3c-5.8-1.2-8.1-4.6-8.1-9.2c0-5.8,5.8-10.4,13.9-10.4c3.5,0,8.1,1.2,10.4,3.5
		c2.3,1.2,3.5,3.5,3.5,4.6l-6.9,1.1c0-1.1-1.1-3.5-6.9-3.5s-6.9,2.3-6.9,3.5c0,3.5,3.5,4.6,5.8,4.6l6.9,1.2
		c3.5,1.2,10.4,2.3,10.4,10.4c0,6.9-6.9,10.4-16.2,10.4c-4.6,0-9.2-1.2-12.7-3.5c-2.3-1.1-2.3-3.5-3.5-4.6L2357.3,365.9
		L2357.3,365.9z M1347.6,426h292.3v-35.9h-241.4V276.9h181.4v-37h-181.4V134.8h241.4V99h-292.3L1347.6,426L1347.6,426z M1500.1,47
		l-39.3,43.9L1584.4,47H1500.1z"/>
	<path class="st0" d="M2130.8,390.1V99h-46.2v326.9h295.7v-35.8H2130.8L2130.8,390.1z M1829.3,99L1663,426h56.6l42.7-84.3H1961
		l42.7,84.3h55.4L1892.8,99.1L1829.3,99L1829.3,99z M1783.1,301.2l78.6-155.9l78.6,155.9H1783.1L1783.1,301.2z M1189.4,289.6
		c75.1-19.6,82-75.1,82-95.9c-4.6-57.8-43.9-94.7-114.4-94.7H951.4v326.9h46.2V289.6h134l99.3,136.3h58.9
		C1289.9,426,1218.2,333.5,1189.4,289.6L1189.4,289.6z M1150.1,250.4H997.6V138.3h158.3c35.8,0,56.6,17.3,63.5,38.1
		c5.8,15,2.3,34.7-5.8,47.4C1200.9,245.7,1175.5,250.4,1150.1,250.4L1150.1,250.4z M669.5,44.7c-132.8,0-223,92.4-223,205.6
		c0,119,99.3,203.3,223,203.3c122.5,0,221.8-83.2,221.8-203.3C891.3,137.1,800.1,44.7,669.5,44.7L669.5,44.7z M667.2,413.2
		c-91.3,0-167.5-73.9-167.5-162.9c0-87.8,72.8-165.2,171-165.2c97,0,167.5,77.4,167.5,165.2C838.2,339.3,759.6,413.2,667.2,413.2
		L667.2,413.2z M327.6,215.7h34.7L423.5,99h-49.7L327.6,215.7L327.6,215.7z M162.4,390.1V99h-45.1v326.9h294.6v-35.8H162.4z"/>
</g>
</svg>
