<?xml version="1.0"?>
<svg width="2500" height="2500" xmlns="http://www.w3.org/2000/svg" xmlns:svg="http://www.w3.org/2000/svg" enable-background="new 0 0 2500 2500" version="1.1" xml:space="preserve">
 <style type="text/css">.st0{fill-rule:evenodd;clip-rule:evenodd;fill:#000000;}
	.st1{fill-rule:evenodd;clip-rule:evenodd;}</style>
 <g class="layer">
  <title>Layer 1</title>
  <g id="svg_1">
   <path class="st0" d="m2380.4,1506.5l0,-129.4l-2263,0l0,129.4l2263,0l0,0z" id="svg_2"/>
   <path class="st1" d="m174,1394.4l71.6,0c17.3,0 38.1,6.9 38.1,27.7c0,19.7 -20.8,27.7 -39.3,27.7l-52,0l0,41.6l-18.5,0l0.1,-97l0,0l0,0zm18.4,43.9l43.9,0c17.3,0 27.7,-4.6 27.7,-16.2c0,-10.4 -6.9,-16.2 -24.3,-16.2l-47.4,0l0.1,32.4l0,0l0,0zm162.9,-43.9l64.7,0c23.1,0 46.2,5.8 46.2,27.7c0,12.7 -8.1,24.3 -32.3,27.7l39.3,41.6l-23.2,0l-39.3,-41.6l-37,0l0,41.6l-18.5,0l0,-97l0.1,0zm18.5,45l43.9,0c17.3,0 30,-4.6 30,-17.3c0,-12.7 -12.7,-16.2 -30,-16.2l-43.9,0l0,33.5zm221.8,-47.3c35.8,0 57.8,20.8 57.8,50.8c0,30 -21.9,50.8 -57.8,50.8c-35.8,0 -57.8,-20.8 -57.8,-50.8c0,-30 22,-50.8 57.8,-50.8zm0,91.3c28.9,0 41.6,-19.6 41.6,-40.4c0,-20.8 -12.7,-40.4 -41.6,-40.4c-27.7,0 -41.6,19.6 -41.6,40.4c0,20.7 13.9,40.4 41.6,40.4zm123.6,-89l92.4,0l0,11.6l-72.8,0l0,28.9l68.2,0l0,10.4l-68.2,0l0,46.2l-19.6,0l0,-97.1zm174.4,0l101.7,0l0,11.6l-83.2,0l0,30l71.6,0l0,10.4l-71.6,0l0,33.5l84.3,0l0,11.6l-102.8,0l0,-97.1zm247.2,15c-10.4,-2.3 -16.2,-3.5 -27.7,-3.5s-24.3,2.3 -24.3,12.7c0,18.5 61.2,13.9 61.2,45c0,20.8 -23.1,28.9 -52,28.9c-10.4,0 -20.8,-2.3 -30,-3.5l2.3,-13.9c6.9,2.3 19.6,5.8 30,5.8c11.6,0 27.7,-4.6 27.7,-16.2c0,-22 -61.2,-15 -61.2,-45.1c0,-17.3 19.6,-26.6 46.2,-26.6c9.2,0 20.8,1.2 30,3.5l-2.2,12.9l0,0zm157.1,0c-10.4,-2.3 -16.2,-3.5 -26.6,-3.5c-11.6,0 -25.4,2.3 -25.4,12.7c0,18.5 62.4,13.9 62.4,45c0,20.8 -24.2,28.9 -53.1,28.9c-9.2,0 -19.6,-2.3 -28.9,-3.5l2.3,-13.9c6.9,2.3 18.5,5.8 28.9,5.8c12.7,0 28.9,-4.6 28.9,-16.2c0,-22 -62.4,-15 -62.4,-45.1c0,-17.3 20.8,-26.6 46.2,-26.6c10.4,0 20.8,1.2 31.2,3.5l-3.5,12.9zm91.3,-15l19.6,0l0,97.1l-19.6,0l0,-97.1zm156,-2.3c35.8,0 57.8,20.8 57.8,50.8c0,30 -21.9,50.8 -57.8,50.8s-57.8,-20.8 -57.8,-50.8c0,-30 21.9,-50.8 57.8,-50.8zm0,91.3c27.7,0 41.6,-19.6 41.6,-40.4c0,-20.8 -13.9,-40.4 -41.6,-40.4c-28.9,0 -41.6,19.6 -41.6,40.4c0,20.7 12.7,40.4 41.6,40.4zm123.6,-89l18.5,0l76.2,76.2l1.2,0l0,-76.2l17.3,0l0,97.1l-18.5,0l-76.2,-76.2l-1.1,0l0,76.2l-17.3,0l0,-97.1l-0.1,0zm196.3,0l19.6,0l76.2,76.2l0,-76.2l17.3,0l0,97.1l-18.5,0l-76.2,-76.2l-1.2,0l0,76.2l-17.3,0l0,-97.1l0.1,0zm196.4,0l101.7,0l0,11.6l-82,0l0,30l70.5,0l0,10.4l-70.5,0l0,33.5l83.2,0l0,11.6l-102.8,0l0,-97.1l-0.1,0zm177.9,0l18.5,0l0,85.5l72.8,0l0,11.6l-91.3,0l0,-97.1l0,0z" fill="#ffffff" id="svg_3"/>
   <path class="st0" d="m2167.8,1236.1l8.1,0c3.5,0 4.6,1.2 5.8,2.3c1.2,1.1 1.2,2.3 1.2,3.4c0,2.3 -1.2,4.6 -6.9,4.6l-8.1,0l0,-10.3l-0.1,0zm0,30.1l0,-13.9l10.4,0c6.9,0 12.7,-3.5 12.7,-10.4c0,-3.4 -2.3,-6.9 -5.8,-9.2c-2.3,-1.1 -4.6,-1.1 -8.1,-1.1l-16.2,0l0,34.7l7,0l0,-0.1zm49.7,-13.9l5.8,-15l5.8,15l-11.6,0l0,0zm11.5,-20.8l-9.2,0l-12.7,34.7l5.8,0l3.5,-8.1l15,0l3.5,8.1l6.9,0l-12.8,-34.7l0,0zm42.8,4.6l9.2,0c5.8,0 6.9,2.3 6.9,5.8c0,3.5 -3.5,4.6 -6.9,4.6l-9.2,0l0,-10.4zm24.2,30.1l-6.9,-15c1.2,-1.1 6.9,-3.5 6.9,-9.2c0.1,-3.1 -1.2,-6 -3.5,-8.1c-3.2,-1.6 -6.8,-2.4 -10.4,-2.3l-17.3,0l0,34.7l6.9,0l0,-15l10.4,0l5.8,15l8.1,0l0,-0.1zm24.3,-34.7l8.1,0l0,34.6l-8.1,0l0,-34.6zm37,24.3c0,1.1 1.1,3.4 4.6,4.6c2.3,1.2 3.5,1.2 4.6,1.2c6.9,0 8.1,-3.5 8.1,-4.6c0,-3.5 -3.5,-4.6 -4.6,-4.6l-9.2,-2.3c-5.8,-1.2 -8.1,-4.6 -8.1,-9.2c0,-5.8 5.8,-10.4 13.9,-10.4c3.5,0 8.1,1.2 10.4,3.5c2.3,1.2 3.5,3.5 3.5,4.6l-6.9,1.1c0,-1.1 -1.1,-3.5 -6.9,-3.5s-6.9,2.3 -6.9,3.5c0,3.5 3.5,4.6 5.8,4.6l6.9,1.2c3.5,1.2 10.4,2.3 10.4,10.4c0,6.9 -6.9,10.4 -16.2,10.4c-4.6,0 -9.2,-1.2 -12.7,-3.5c-2.3,-1.1 -2.3,-3.5 -3.5,-4.6l6.8,-2.4l0,0zm-1009.7,60.1l292.3,0l0,-35.9l-241.4,0l0,-113.2l181.4,0l0,-37l-181.4,0l0,-105.1l241.4,0l0,-35.8l-292.3,0l0,327l0,0zm152.5,-379l-39.3,43.9l123.6,-43.9l-84.3,0z" id="svg_4"/>
   <path class="st0" d="m2130.8,1280l0,-291.1l-46.2,0l0,326.9l295.7,0l0,-35.8l-249.5,0l0,0zm-301.5,-291.1l-166.3,327l56.6,0l42.7,-84.3l198.7,0l42.7,84.3l55.4,0l-166.3,-326.9l-63.5,0l0,-0.1zm-46.2,202.2l78.6,-155.9l78.6,155.9l-157.2,0l0,0zm-593.7,-11.6c75.1,-19.6 82,-75.1 82,-95.9c-4.6,-57.8 -43.9,-94.7 -114.4,-94.7l-205.6,0l0,326.9l46.2,0l0,-136.3l134,0l99.3,136.3l58.9,0c0.1,0.1 -71.6,-92.4 -100.4,-136.3l0,0zm-39.3,-39.2l-152.5,0l0,-112.1l158.3,0c35.8,0 56.6,17.3 63.5,38.1c5.8,15 2.3,34.7 -5.8,47.4c-12.7,21.9 -38.1,26.6 -63.5,26.6l0,0zm-480.6,-205.7c-132.8,0 -223,92.4 -223,205.6c0,119 99.3,203.3 223,203.3c122.5,0 221.8,-83.2 221.8,-203.3c0,-113.2 -91.2,-205.6 -221.8,-205.6l0,0zm-2.3,368.5c-91.3,0 -167.5,-73.9 -167.5,-162.9c0,-87.8 72.8,-165.2 171,-165.2c97,0 167.5,77.4 167.5,165.2c0,89 -78.6,162.9 -171,162.9l0,0zm-339.6,-197.5l34.7,0l61.2,-116.7l-49.7,0l-46.2,116.7l0,0zm-165.2,174.4l0,-291.1l-45.1,0l0,326.9l294.6,0l0,-35.8l-249.5,0z" id="svg_5"/>
  </g>
 </g>
</svg>