<?xml version="1.0" encoding="iso-8859-1"?>
<!-- Generator: Adobe Illustrator 25.0.0, SVG Export Plug-In . SVG Version: 6.00 Build 0)  -->
<svg version="1.1" id="Calque_1" xmlns="http://www.w3.org/2000/svg" xmlns:xlink="http://www.w3.org/1999/xlink" x="0px" y="0px"
	 width="500px" height="500px" viewBox="0 0 500 500" enable-background="new 0 0 500 500" xml:space="preserve">
<defs>
	<circle id="SVGID_1_" cx="250" cy="250" r="229.023"/>
</defs>
<clipPath id="SVGID_2_">
	<use xlink:href="#SVGID_1_"  overflow="visible"/>
</clipPath>
<circle clip-path="url(#SVGID_2_)" fill-rule="evenodd" clip-rule="evenodd" fill="#0F0F0F" cx="250.011" cy="249.655" r="229.023"/>
<g id="XMLID_41_" clip-path="url(#SVGID_2_)">
	<path id="XMLID_9_" fill-rule="evenodd" clip-rule="evenodd" fill="#F6F6F6" d="M289.806,252.775L263.54,387.969l-2.871,5.546
		h34.487l51.447-72.977l24.993-8.626l27.423-4.669l17.323,14.986l-43.399,34.037l28.021,28.213l2.987,9.037l94.808-13.057
		c5.282-0.727,7.09-7.449,2.886-10.728l-67.13-52.368l-32.905-42.018l-23.205,9.337l-28.381-34.238L283.075,71.2l-29.097,39.18
		l-26.854,49.8l-50.2,51.358l-32.67,51.357l-42.001,20.231l-32.895,38.907l-29.333-6.225l-21.544,35.964l1.553,12.646l4.046-4.837
		l22.528-13.362l61.02-52.069l39.196-17.252l-0.888,8.559l-60.32,87.151l8.86-45.333l-56.091,59.139l2.682,10.223l52.426-3.123
		l55.397-66.105l-6.979,14.495l-32.393,51.61h61.887l12.285-22.465l19.886-20.809l10.492-4.358l30.56-52.645l13.185-20.098
		l2.39,25.344L289.806,252.775L289.806,252.775z M295.732,187.511l-5.384,45.421l-1.284,2.856l-11.28,14.385l-10.833-18.408
		l-1.176-11.282l22.982-90.041l0.311,33.759L295.732,187.511L295.732,187.511z M261.774,167.382l3.2,22.165l-35.506,89.419
		l-4.08-53.425l-3.812-5.314l-45.659,66.986l-20.157,25.545l48.199-97.266l20.858-31.769l8.007-1.557l31.921-68.408l15.118-15.697
		L261.774,167.382L261.774,167.382z M323.506,290.513l22.891-8.271l-14.678,21.532l-16.965,22.566l-2.825-11.316L323.506,290.513z"
		/>
	<path id="XMLID_1_" fill-rule="evenodd" clip-rule="evenodd" fill="#F6F6F6" d="M46.176,407.658
		c164.584,25.885,330.779-21.752,454.153-12.094c3.836,0.3-2.025-1.531,1.726-1.116l2.854-4.893l2.573-6.751
		c-3.354-0.775,1.775,0.341-1.657-0.328c-126.738-24.696-306.289,21.131-467.231,8.541"/>
</g>
<g clip-path="url(#SVGID_2_)">
</g>
<g clip-path="url(#SVGID_2_)">
</g>
<g clip-path="url(#SVGID_2_)">
</g>
<g clip-path="url(#SVGID_2_)">
</g>
<g clip-path="url(#SVGID_2_)">
</g>
<g clip-path="url(#SVGID_2_)">
</g>
</svg>
