<svg width="326" height="407" viewBox="0 0 326 407" fill="none" xmlns="http://www.w3.org/2000/svg">
<path d="M264.42 0H61.02C26.442 0 0 26.442 0 61.02V183.06H174.924L128.142 136.278C120.006 128.142 120.006 115.938 128.142 107.802C136.278 99.666 148.482 99.666 156.618 107.802L237.978 189.162C246.114 197.298 246.114 209.502 237.978 217.638L156.618 298.998C148.482 307.134 136.278 307.134 128.142 298.998C120.006 290.862 120.006 278.658 128.142 270.522L174.924 223.74H0V345.78C0 380.358 26.442 406.8 61.02 406.8H264.42C298.998 406.8 325.44 380.358 325.44 345.78V61.02C325.44 26.442 298.998 0 264.42 0Z" fill="#FEFEFE"/>
</svg>
