<svg width="325" height="325" viewBox="0 0 325 325" fill="none" xmlns="http://www.w3.org/2000/svg">
<path fill-rule="evenodd" clip-rule="evenodd" d="M292.5 325C274.551 325 260 310.449 260 292.5C260 274.551 274.551 260 292.5 260C310.449 260 325 274.551 325 292.5C325 310.449 310.449 325 292.5 325ZM292.5 195C274.551 195 260 180.449 260 162.5C260 144.551 274.551 130 292.5 130C310.449 130 325 144.551 325 162.5C325 180.449 310.449 195 292.5 195ZM292.5 65C274.551 65 260 50.4493 260 32.5C260 14.5507 274.551 0 292.5 0C310.449 0 325 14.5507 325 32.5C325 50.4493 310.449 65 292.5 65ZM162.5 325C144.551 325 130 310.449 130 292.5C130 274.551 144.551 260 162.5 260C180.449 260 195 274.551 195 292.5C195 310.449 180.449 325 162.5 325ZM162.5 195C144.551 195 130 180.449 130 162.5C130 144.551 144.551 130 162.5 130C180.449 130 195 144.551 195 162.5C195 180.449 180.449 195 162.5 195ZM162.5 65C144.551 65 130 50.4493 130 32.5C130 14.5507 144.551 0 162.5 0C180.449 0 195 14.5507 195 32.5C195 50.4493 180.449 65 162.5 65ZM32.5 325C14.5507 325 0 310.449 0 292.5C0 274.551 14.5507 260 32.5 260C50.4493 260 65 274.551 65 292.5C65 310.449 50.4493 325 32.5 325ZM32.5 195C14.5507 195 0 180.449 0 162.5C0 144.551 14.5507 130 32.5 130C50.4493 130 65 144.551 65 162.5C65 180.449 50.4493 195 32.5 195ZM32.5 65C14.5507 65 0 50.4493 0 32.5C0 14.5507 14.5507 0 32.5 0C50.4493 0 65 14.5507 65 32.5C65 50.4493 50.4493 65 32.5 65Z" fill="#FEFEFE"/>
</svg>
