<svg width="407" height="407" viewBox="0 0 407 407" fill="none" xmlns="http://www.w3.org/2000/svg">
<path fill-rule="evenodd" clip-rule="evenodd" d="M248.641 248.641C289.547 207.736 289.547 141.415 248.641 100.509C207.736 59.6038 141.415 59.6038 100.509 100.509C59.6038 141.415 59.6038 207.736 100.509 248.641C141.415 289.547 207.736 289.547 248.641 248.641ZM270.861 320.238C203.078 365.146 110.853 357.74 51.132 298.019C-17.044 229.843 -17.044 119.308 51.132 51.132C119.308 -17.044 229.843 -17.044 298.019 51.132C357.74 110.853 365.146 203.078 320.238 270.861L396.774 347.396C410.409 361.031 410.409 383.138 396.774 396.774C383.138 410.409 361.031 410.409 347.396 396.774L270.861 320.238Z" fill="#101010"/>
</svg>
