<svg width="39" height="40" viewBox="0 0 39 40" fill="none" xmlns="http://www.w3.org/2000/svg">
<path d="M0.711165 13.8416C1.58386 11.1542 3.02144 8.68737 4.9183 6.5968C5.23904 6.24329 5.74228 6.11728 6.19283 6.2777L10.7259 7.89157C11.9549 8.32888 13.3072 7.69137 13.7464 6.46766C13.7896 6.34732 13.8229 6.22371 13.8459 6.0982L14.7095 1.37819C14.7953 0.908903 15.1573 0.537679 15.6259 0.438346C16.997 0.147783 18.4027 0 19.8269 0C21.2502 0 22.6551 0.147616 24.0254 0.437813C24.4938 0.537046 24.8558 0.908036 24.9418 1.37716L25.8079 6.098C26.042 7.3764 27.2725 8.22375 28.5566 7.99064C28.683 7.9677 28.807 7.93458 28.9277 7.89164L33.4609 6.2777C33.9114 6.11728 34.4146 6.24329 34.7353 6.5968C36.6323 8.68737 38.0698 11.1542 38.9427 13.8416C39.0898 14.2949 38.9477 14.7919 38.583 15.1003L34.9087 18.2064C33.9141 19.0475 33.7924 20.5324 34.637 21.523C34.72 21.6204 34.811 21.7109 34.9087 21.7935L38.583 24.8997C38.9477 25.208 39.0898 25.7051 38.9427 26.1584C38.0698 28.8459 36.6323 31.3128 34.7353 33.4031C34.4146 33.7566 33.9114 33.8826 33.4609 33.7222L28.9277 32.1084C27.699 31.6712 26.3465 32.3088 25.9074 33.5322C25.8642 33.6525 25.8309 33.7763 25.8078 33.9023L24.9418 38.6229C24.8558 39.092 24.4938 39.4628 24.0254 39.5622C22.6551 39.8523 21.2502 40 19.8269 40C18.4027 40 16.997 39.8523 15.6259 39.5615C15.1573 39.4622 14.7953 39.091 14.7095 38.6219L13.8459 33.902C13.6117 32.6235 12.3811 31.7763 11.0972 32.0093C10.9709 32.0323 10.8468 32.0653 10.7261 32.1084L6.19283 33.7222C5.74228 33.8826 5.23904 33.7566 4.9183 33.4031C3.02144 31.3128 1.58386 28.8459 0.711165 26.1584C0.563949 25.7051 0.705896 25.208 1.07072 24.8997L4.74495 21.7936C5.73978 20.9524 5.86145 19.4676 5.01674 18.477C4.93368 18.3796 4.84278 18.2891 4.74498 18.2064L1.07072 15.1003C0.705896 14.7919 0.563949 14.2949 0.711165 13.8416ZM13.9912 19.9998C13.9912 23.2225 16.6037 25.8351 19.8265 25.8351C23.0492 25.8351 25.6618 23.2225 25.6618 19.9998C25.6618 16.777 23.0492 14.1645 19.8265 14.1645C16.6037 14.1645 13.9912 16.777 13.9912 19.9998Z" fill="#FEFEFE"/>
</svg>
